<svg width="33" height="32" viewBox="0 0 33 32" fill="none" xmlns="http://www.w3.org/2000/svg">
<rect x="0.599976" width="32" height="32" rx="16" fill="#F4F6FB"/>
<g clip-path="url(#clip0_2492_2708)">
<path d="M22.962 12.3323C23.2667 13.5203 23.2667 16.0003 23.2667 16.0003C23.2667 16.0003 23.2667 18.4803 22.962 19.6683C22.7927 20.325 22.2973 20.8417 21.67 21.0163C20.5307 21.3337 16.6 21.3337 16.6 21.3337C16.6 21.3337 12.6713 21.3337 11.53 21.0163C10.9 20.839 10.4053 20.323 10.238 19.6683C9.93335 18.4803 9.93335 16.0003 9.93335 16.0003C9.93335 16.0003 9.93335 13.5203 10.238 12.3323C10.4073 11.6757 10.9027 11.159 11.53 10.9843C12.6713 10.667 16.6 10.667 16.6 10.667C16.6 10.667 20.5307 10.667 21.67 10.9843C22.3 11.1617 22.7947 11.6777 22.962 12.3323ZM15.2667 18.3337L19.2667 16.0003L15.2667 13.667V18.3337Z" fill="#007BFB"/>
</g>
<defs>
<clipPath id="clip0_2492_2708">
<rect width="16" height="16" fill="white" transform="translate(8.59998 8)"/>
</clipPath>
</defs>
</svg>
