<svg width="24" height="24" viewBox="0 0 24 24" fill="none" xmlns="http://www.w3.org/2000/svg">
<path d="M17.1484 21.0938H6.41922C5.79648 21.093 5.19946 20.8453 4.75911 20.4049C4.31877 19.9646 4.07106 19.3676 4.07031 18.7448V4.59891C4.07106 3.97617 4.31877 3.37914 4.75911 2.9388C5.19946 2.49846 5.79648 2.25074 6.41922 2.25H13.4552C13.5475 2.24996 13.639 2.26811 13.7243 2.30342C13.8096 2.33873 13.8872 2.3905 13.9525 2.45578L19.2916 7.79391C19.3568 7.85923 19.4086 7.93677 19.4439 8.02211C19.4792 8.10744 19.4974 8.1989 19.4973 8.29125V18.7444C19.4967 19.3672 19.2491 19.9643 18.8087 20.4048C18.3684 20.8452 17.7713 21.093 17.1484 21.0938ZM6.41922 3.65625C6.16929 3.6565 5.92966 3.75589 5.75293 3.93262C5.57621 4.10935 5.47681 4.34897 5.47656 4.59891V18.7448C5.47681 18.9948 5.57621 19.2344 5.75293 19.4111C5.92966 19.5879 6.16929 19.6873 6.41922 19.6875H17.1484C17.3984 19.6873 17.638 19.5879 17.8147 19.4111C17.9914 19.2344 18.0908 18.9948 18.0911 18.7448V8.58234L13.165 3.65625H6.41922Z" fill="#3173F2"/>
<path d="M18.7952 8.99438H15.1028C14.4801 8.99363 13.8831 8.74592 13.4427 8.30557C13.0024 7.86523 12.7547 7.26821 12.7539 6.64547V2.95313C12.7539 2.76664 12.828 2.5878 12.9598 2.45594C13.0917 2.32408 13.2706 2.25 13.457 2.25C13.6435 2.25 13.8224 2.32408 13.9542 2.45594C14.0861 2.5878 14.1602 2.76664 14.1602 2.95313V6.64547C14.1604 6.8954 14.2598 7.13503 14.4365 7.31175C14.6133 7.48848 14.8529 7.58788 15.1028 7.58813H18.7952C18.9816 7.58813 19.1605 7.6622 19.2923 7.79407C19.4242 7.92593 19.4983 8.10477 19.4983 8.29125C19.4983 8.47773 19.4242 8.65657 19.2923 8.78843C19.1605 8.9203 18.9816 8.99438 18.7952 8.99438Z" fill="#3173F2"/>
<path d="M15.5352 11.5312H8.03516C7.84868 11.5312 7.66983 11.4572 7.53797 11.3253C7.40611 11.1934 7.33203 11.0146 7.33203 10.8281C7.33203 10.6416 7.40611 10.4628 7.53797 10.3309C7.66983 10.1991 7.84868 10.125 8.03516 10.125H15.5352C15.6275 10.125 15.7189 10.1432 15.8042 10.1785C15.8895 10.2139 15.967 10.2656 16.0323 10.3309C16.0976 10.3962 16.1494 10.4737 16.1848 10.5591C16.2201 10.6444 16.2383 10.7358 16.2383 10.8281C16.2383 10.9205 16.2201 11.0119 16.1848 11.0972C16.1494 11.1825 16.0976 11.26 16.0323 11.3253C15.967 11.3906 15.8895 11.4424 15.8042 11.4777C15.7189 11.5131 15.6275 11.5312 15.5352 11.5312Z" fill="#3173F2"/>
<path d="M15.5352 14.4375H8.03516C7.84868 14.4375 7.66983 14.3634 7.53797 14.2316C7.40611 14.0997 7.33203 13.9209 7.33203 13.7344C7.33203 13.5479 7.40611 13.3691 7.53797 13.2372C7.66983 13.1053 7.84868 13.0312 8.03516 13.0312H15.5352C15.7216 13.0312 15.9005 13.1053 16.0323 13.2372C16.1642 13.3691 16.2383 13.5479 16.2383 13.7344C16.2383 13.9209 16.1642 14.0997 16.0323 14.2316C15.9005 14.3634 15.7216 14.4375 15.5352 14.4375Z" fill="#3173F2"/>
<path d="M15.5352 17.3438H8.03516C7.84868 17.3438 7.66983 17.2697 7.53797 17.1378C7.40611 17.0059 7.33203 16.8271 7.33203 16.6406C7.33203 16.4541 7.40611 16.2753 7.53797 16.1434C7.66983 16.0116 7.84868 15.9375 8.03516 15.9375H15.5352C15.7216 15.9375 15.9005 16.0116 16.0323 16.1434C16.1642 16.2753 16.2383 16.4541 16.2383 16.6406C16.2383 16.8271 16.1642 17.0059 16.0323 17.1378C15.9005 17.2697 15.7216 17.3438 15.5352 17.3438Z" fill="#3173F2"/>
</svg>
