<svg width="32" height="32" viewBox="0 0 32 32" fill="none" xmlns="http://www.w3.org/2000/svg">
<rect width="32" height="32" rx="16" fill="#F4F6FB"/>
<path d="M16.2017 10.5211C17.2193 10.5211 18.047 11.2824 18.047 12.2183C18.047 13.151 17.2193 13.9123 16.2017 13.9123C15.1841 13.9123 14.3564 13.151 14.3564 12.2183C14.3564 11.2824 15.1841 10.5211 16.2017 10.5211ZM16.2017 16.4334C18.7313 16.4334 20.7844 14.545 20.7844 12.2183C20.7844 9.89166 18.7313 8 16.2017 8C13.672 8 11.6153 9.89166 11.6153 12.2183C11.6153 14.5417 13.672 16.4334 16.2017 16.4334ZM18.004 19.6564C18.9105 19.4686 19.7848 19.139 20.591 18.6711C21.2001 18.3184 21.3828 17.5769 20.9994 17.0167C20.616 16.4564 19.8098 16.2851 19.2007 16.641C17.3733 17.6956 15.0264 17.6956 13.2026 16.641C12.5899 16.2851 11.7837 16.4564 11.4003 17.0167C11.0169 17.5769 11.1997 18.3184 11.8124 18.6711C12.615 19.139 13.4928 19.4686 14.3994 19.6564L11.9055 21.9502C11.3967 22.4181 11.3967 23.1794 11.9091 23.6474C12.1635 23.8814 12.4967 24 12.83 24C13.1632 24 13.5 23.8814 13.7544 23.6474L16.2017 21.3965L18.6525 23.6474C19.1613 24.1153 19.9854 24.1153 20.4978 23.6474C21.0066 23.1794 21.0066 22.4181 20.4978 21.9502L18.004 19.6564Z" fill="#3173F2"/>
</svg>
