<svg width="33" height="32" viewBox="0 0 33 32" fill="none" xmlns="http://www.w3.org/2000/svg">
<rect x="0.199951" width="32" height="32" rx="16" fill="#F4F6FB"/>
<path fill-rule="evenodd" clip-rule="evenodd" d="M16.0381 8C16.0003 11.2913 15.785 13.1332 14.5591 14.3591C13.3332 15.5851 11.4912 15.8003 8.19995 15.8381V16.3157C11.4912 16.3535 13.3332 16.5687 14.5591 17.7947C15.7658 19.0014 15.9933 20.8049 16.0362 24H16.5176C16.5605 20.8049 16.7879 19.0014 17.9946 17.7947C19.2014 16.588 21.0049 16.3605 24.2 16.3177V15.8362C21.0049 15.7933 19.2014 15.5659 17.9946 14.3591C16.7687 13.1332 16.5535 11.2913 16.5157 8H16.0381Z" fill="#007BFB"/>
</svg>
