<svg width="60" height="60" viewBox="0 0 60 60" fill="none" xmlns="http://www.w3.org/2000/svg">
<g clip-path="url(#clip0_2217_1614)">
<mask id="mask0_2217_1614" style="mask-type:luminance" maskUnits="userSpaceOnUse" x="0" y="0" width="60" height="60">
<path d="M58.8921 24.5455H30.9375V36.1364H47.0284C45.5284 43.5 39.2557 47.7273 30.9375 47.7273C21.1193 47.7273 13.2102 39.8182 13.2102 30C13.2102 20.1818 21.1193 12.2727 30.9375 12.2727C35.1648 12.2727 38.983 13.7727 41.983 16.2273L50.7103 7.5C45.3921 2.86364 38.5739 0 30.9375 0C14.3011 0 0.9375 13.3636 0.9375 30C0.9375 46.6364 14.3011 60 30.9375 60C45.9375 60 59.5739 49.0909 59.5739 30C59.5739 28.2273 59.3012 26.3182 58.8921 24.5455Z" fill="white"/>
</mask>
<g mask="url(#mask0_2217_1614)">
<path d="M-1.78955 47.7299V12.2754L21.3923 30.0027L-1.78955 47.7299Z" fill="#FBBC05"/>
</g>
<mask id="mask1_2217_1614" style="mask-type:luminance" maskUnits="userSpaceOnUse" x="0" y="0" width="60" height="60">
<path d="M58.8921 24.5455H30.9375V36.1364H47.0284C45.5284 43.5 39.2557 47.7273 30.9375 47.7273C21.1193 47.7273 13.2102 39.8182 13.2102 30C13.2102 20.1818 21.1193 12.2727 30.9375 12.2727C35.1648 12.2727 38.983 13.7727 41.983 16.2273L50.7103 7.5C45.3921 2.86364 38.5739 0 30.9375 0C14.3011 0 0.9375 13.3636 0.9375 30C0.9375 46.6364 14.3011 60 30.9375 60C45.9375 60 59.5739 49.0909 59.5739 30C59.5739 28.2273 59.3012 26.3182 58.8921 24.5455Z" fill="white"/>
</mask>
<g mask="url(#mask1_2217_1614)">
<path d="M-1.78955 12.2754L21.3923 30.0027L30.9377 21.6845L63.665 16.3663V-2.72461H-1.78955V12.2754Z" fill="#EA4335"/>
</g>
<mask id="mask2_2217_1614" style="mask-type:luminance" maskUnits="userSpaceOnUse" x="0" y="0" width="60" height="60">
<path d="M58.8921 24.5455H30.9375V36.1364H47.0284C45.5284 43.5 39.2557 47.7273 30.9375 47.7273C21.1193 47.7273 13.2102 39.8182 13.2102 30C13.2102 20.1818 21.1193 12.2727 30.9375 12.2727C35.1648 12.2727 38.983 13.7727 41.983 16.2273L50.7103 7.5C45.3921 2.86364 38.5739 0 30.9375 0C14.3011 0 0.9375 13.3636 0.9375 30C0.9375 46.6364 14.3011 60 30.9375 60C45.9375 60 59.5739 49.0909 59.5739 30C59.5739 28.2273 59.3012 26.3182 58.8921 24.5455Z" fill="white"/>
</mask>
<g mask="url(#mask2_2217_1614)">
<path d="M-1.78955 47.73L39.1196 16.3663L49.8923 17.7299L63.665 -2.72461V62.73H-1.78955V47.73Z" fill="#34A853"/>
</g>
<mask id="mask3_2217_1614" style="mask-type:luminance" maskUnits="userSpaceOnUse" x="0" y="0" width="60" height="60">
<path d="M58.8921 24.5455H30.9375V36.1364H47.0284C45.5284 43.5 39.2557 47.7273 30.9375 47.7273C21.1193 47.7273 13.2102 39.8182 13.2102 30C13.2102 20.1818 21.1193 12.2727 30.9375 12.2727C35.1648 12.2727 38.983 13.7727 41.983 16.2273L50.7103 7.5C45.3921 2.86364 38.5739 0 30.9375 0C14.3011 0 0.9375 13.3636 0.9375 30C0.9375 46.6364 14.3011 60 30.9375 60C45.9375 60 59.5739 49.0909 59.5739 30C59.5739 28.2273 59.3012 26.3182 58.8921 24.5455Z" fill="white"/>
</mask>
<g mask="url(#mask3_2217_1614)">
<path d="M63.6648 62.73L21.392 30.0027L15.9375 25.9118L63.6648 12.2754V62.73Z" fill="#4285F4"/>
</g>
</g>
<defs>
<clipPath id="clip0_2217_1614">
<rect width="60" height="60" fill="white"/>
</clipPath>
</defs>
</svg>
