<svg width="12" height="12" viewBox="0 0 12 12" fill="none" xmlns="http://www.w3.org/2000/svg">
<path d="M9.33325 10C9.33325 10.3682 9.63173 10.6667 9.99992 10.6667C10.3681 10.6667 10.6666 10.3682 10.6666 10C10.6666 9.63181 10.3681 9.33333 9.99992 9.33333C9.63173 9.33333 9.33325 9.63181 9.33325 10Z" stroke="white" stroke-width="2" stroke-linecap="round" stroke-linejoin="round"/>
<path d="M5.33325 10C5.33325 10.3682 5.63173 10.6667 5.99992 10.6667C6.36811 10.6667 6.66659 10.3682 6.66659 10C6.66659 9.63181 6.36811 9.33333 5.99992 9.33333C5.63173 9.33333 5.33325 9.63181 5.33325 10Z" stroke="white" stroke-width="2" stroke-linecap="round" stroke-linejoin="round"/>
<path d="M1.33325 10C1.33325 10.3682 1.63173 10.6667 1.99992 10.6667C2.36811 10.6667 2.66659 10.3682 2.66659 10C2.66659 9.63181 2.36811 9.33333 1.99992 9.33333C1.63173 9.33333 1.33325 9.63181 1.33325 10Z" stroke="white" stroke-width="2" stroke-linecap="round" stroke-linejoin="round"/>
<path d="M9.33325 6C9.33325 6.36818 9.63173 6.66666 9.99992 6.66666C10.3681 6.66666 10.6666 6.36818 10.6666 6C10.6666 5.63181 10.3681 5.33333 9.99992 5.33333C9.63173 5.33333 9.33325 5.63181 9.33325 6Z" stroke="white" stroke-width="2" stroke-linecap="round" stroke-linejoin="round"/>
<path d="M5.33325 6C5.33325 6.36818 5.63173 6.66666 5.99992 6.66666C6.36811 6.66666 6.66659 6.36818 6.66659 6C6.66659 5.63181 6.36811 5.33333 5.99992 5.33333C5.63173 5.33333 5.33325 5.63181 5.33325 6Z" stroke="white" stroke-width="2" stroke-linecap="round" stroke-linejoin="round"/>
<path d="M1.33325 6C1.33325 6.36818 1.63173 6.66666 1.99992 6.66666C2.36811 6.66666 2.66659 6.36818 2.66659 6C2.66659 5.63181 2.36811 5.33333 1.99992 5.33333C1.63173 5.33333 1.33325 5.63181 1.33325 6Z" stroke="white" stroke-width="2" stroke-linecap="round" stroke-linejoin="round"/>
<path d="M9.33325 1.99999C9.33325 2.36818 9.63173 2.66666 9.99992 2.66666C10.3681 2.66666 10.6666 2.36818 10.6666 1.99999C10.6666 1.63181 10.3681 1.33333 9.99992 1.33333C9.63173 1.33333 9.33325 1.63181 9.33325 1.99999Z" stroke="white" stroke-width="2" stroke-linecap="round" stroke-linejoin="round"/>
<path d="M5.33325 1.99999C5.33325 2.36818 5.63173 2.66666 5.99992 2.66666C6.36811 2.66666 6.66659 2.36818 6.66659 1.99999C6.66659 1.63181 6.36811 1.33333 5.99992 1.33333C5.63173 1.33333 5.33325 1.63181 5.33325 1.99999Z" stroke="white" stroke-width="2" stroke-linecap="round" stroke-linejoin="round"/>
<path d="M1.33325 1.99999C1.33325 2.36818 1.63173 2.66666 1.99992 2.66666C2.36811 2.66666 2.66659 2.36818 2.66659 1.99999C2.66659 1.63181 2.36811 1.33333 1.99992 1.33333C1.63173 1.33333 1.33325 1.63181 1.33325 1.99999Z" stroke="white" stroke-width="2" stroke-linecap="round" stroke-linejoin="round"/>
</svg>
