<svg width="33" height="32" viewBox="0 0 33 32" fill="none" xmlns="http://www.w3.org/2000/svg">
<rect x="0.400024" width="32" height="32" rx="16" fill="#F4F6FB"/>
<path fill-rule="evenodd" clip-rule="evenodd" d="M9.00521 23.5115L12.033 22.7173L12.3252 22.8907C13.5534 23.6195 14.9614 24.0052 16.3969 24.0058H16.4002C20.8095 24.0058 24.3983 20.4169 24.4 16.0058C24.4009 13.8682 23.5695 11.8582 22.0591 10.3461C20.5487 8.83392 18.5401 8.00074 16.4033 8C11.9906 8 8.40178 11.5885 8.40003 15.9993C8.39941 17.5109 8.82235 18.9831 9.62316 20.2567L9.81338 20.5594L9.00521 23.5115ZM20.9198 18.0786C21.0876 18.1596 21.2008 18.2144 21.2492 18.2951C21.3093 18.3954 21.3093 18.8769 21.109 19.4388C20.9085 20.0005 19.9477 20.5133 19.4856 20.5823C19.0713 20.6442 18.547 20.6701 17.9709 20.487C17.6216 20.3762 17.1736 20.2282 16.5998 19.9804C14.3452 19.0068 12.8216 16.8216 12.5336 16.4086C12.5134 16.3797 12.4993 16.3595 12.4914 16.349L12.4895 16.3464C12.3622 16.1766 11.5094 15.0387 11.5094 13.8611C11.5094 12.7533 12.0536 12.1727 12.3041 11.9054C12.3212 11.8871 12.337 11.8702 12.3512 11.8548C12.5716 11.614 12.8322 11.5538 12.9925 11.5538C13.1528 11.5538 13.3133 11.5553 13.4534 11.5623C13.4707 11.5632 13.4887 11.5631 13.5073 11.563C13.6474 11.5622 13.8222 11.5612 13.9945 11.9752C14.0608 12.1345 14.1579 12.3707 14.2602 12.6199C14.4671 13.1237 14.6958 13.6803 14.736 13.7609C14.7962 13.8813 14.8362 14.0217 14.7561 14.1823C14.744 14.2063 14.7329 14.2291 14.7223 14.2508C14.6621 14.3737 14.6178 14.4641 14.5156 14.5834C14.4754 14.6303 14.4339 14.6809 14.3923 14.7315C14.3096 14.8323 14.2269 14.933 14.1548 15.0048C14.0344 15.1247 13.9091 15.2548 14.0494 15.4956C14.1897 15.7364 14.6723 16.5239 15.3873 17.1616C16.1558 17.8471 16.8238 18.1369 17.1624 18.2837C17.2285 18.3124 17.282 18.3356 17.3213 18.3553C17.5617 18.4757 17.702 18.4556 17.8423 18.2951C17.9826 18.1346 18.4435 17.5928 18.6038 17.3521C18.7641 17.1114 18.9245 17.1515 19.1449 17.2317C19.3654 17.3121 20.5478 17.8938 20.7883 18.0142C20.8353 18.0377 20.8792 18.0589 20.9198 18.0786Z" fill="#3173F2"/>
</svg>
