<svg width="33" height="32" viewBox="0 0 33 32" fill="none" xmlns="http://www.w3.org/2000/svg">
<rect x="0.800049" width="32" height="32" rx="16" fill="#F4F6FB"/>
<g clip-path="url(#clip0_2492_2700)">
<path fill-rule="evenodd" clip-rule="evenodd" d="M21.9279 17.0624C22.3996 17.5099 22.8974 17.931 23.3204 18.4237C23.5073 18.6426 23.6842 18.8686 23.8196 19.1227C24.0113 19.4838 23.8376 19.8813 23.5044 19.9029L21.433 19.902C20.8987 19.9451 20.4725 19.736 20.1141 19.381C19.8273 19.0971 19.5617 18.7949 19.286 18.5014C19.1729 18.3815 19.0546 18.2686 18.9132 18.1794C18.6304 18.001 18.385 18.0556 18.2234 18.3422C18.0588 18.6338 18.0215 18.9566 18.0053 19.2815C17.9831 19.7556 17.8357 19.8802 17.3457 19.9019C16.2986 19.9499 15.3048 19.7959 14.3816 19.2826C13.5677 18.83 12.9366 18.1911 12.3872 17.4677C11.3176 16.0592 10.4985 14.5116 9.76236 12.9205C9.59666 12.562 9.71784 12.3696 10.1248 12.3628C10.8006 12.3501 11.4762 12.351 12.1528 12.3619C12.4274 12.3658 12.6093 12.5189 12.7153 12.7711C13.0809 13.6448 13.5283 14.4761 14.0898 15.2466C14.2394 15.4517 14.3919 15.6568 14.609 15.8012C14.8492 15.9611 15.0321 15.9081 15.1451 15.648C15.2168 15.4831 15.2482 15.3055 15.2644 15.1289C15.3179 14.5212 15.325 13.9146 15.2311 13.3091C15.1734 12.9312 14.9544 12.6866 14.5664 12.6151C14.3685 12.5786 14.3979 12.507 14.4938 12.3972C14.6603 12.2078 14.8169 12.0898 15.1291 12.0898H17.4701C17.8387 12.1605 17.9205 12.3214 17.971 12.6819L17.973 15.2092C17.969 15.3487 18.0447 15.7628 18.3033 15.8551C18.5102 15.9209 18.6466 15.7599 18.7708 15.6324C19.3313 15.0542 19.7314 14.3709 20.0888 13.6634C20.2474 13.3523 20.3837 13.0292 20.5159 12.7064C20.6138 12.4668 20.7675 12.349 21.0451 12.3542L23.2982 12.3561C23.365 12.3561 23.4326 12.3571 23.4973 12.3679C23.877 12.4307 23.9811 12.5895 23.8638 12.9498C23.679 13.5151 23.3195 13.9862 22.968 14.4595C22.5923 14.9648 22.1904 15.4528 21.8178 15.9611C21.4755 16.4253 21.5027 16.6593 21.9279 17.0624Z" fill="#007BFB"/>
</g>
<defs>
<clipPath id="clip0_2492_2700">
<rect width="16" height="16" fill="white" transform="translate(8.80005 8)"/>
</clipPath>
</defs>
</svg>
