<svg width="32" height="32" viewBox="0 0 32 32" fill="none" xmlns="http://www.w3.org/2000/svg">
<rect width="32" height="32" rx="16" fill="#3173F2"/>
<path d="M21.7231 8H10.2769C8.98461 8 8 8.98462 8 10.2769V21.7231C8 23.0154 8.98461 24 10.2769 24H21.7231C23.0154 24 24 23.0154 24 21.7231V10.2769C24 8.98462 23.0154 8 21.7231 8ZM16 20.8C18.6462 20.8 20.8 18.7077 20.8 16.1846C20.8 15.7538 20.7385 15.2615 20.6154 14.8923H21.9692V21.4154C21.9692 21.7231 21.7231 22.0308 21.3538 22.0308H10.6462C10.3385 22.0308 10.0308 21.7846 10.0308 21.4154V14.8308H11.4462C11.3231 15.2615 11.2615 15.6923 11.2615 16.1231C11.2 18.7077 13.3538 20.8 16 20.8ZM16 18.9538C14.2769 18.9538 12.9231 17.6 12.9231 15.9385C12.9231 14.2769 14.2769 12.9231 16 12.9231C17.7231 12.9231 19.0769 14.2769 19.0769 15.9385C19.0769 17.6615 17.7231 18.9538 16 18.9538ZM21.9077 12.3692C21.9077 12.7385 21.6 13.0462 21.2308 13.0462H19.5077C19.1385 13.0462 18.8308 12.7385 18.8308 12.3692V10.7077C18.8308 10.3385 19.1385 10.0308 19.5077 10.0308H21.2308C21.6 10.0308 21.9077 10.3385 21.9077 10.7077V12.3692Z" fill="white"/>
</svg>
