<svg width="32" height="32" viewBox="0 0 32 32" fill="none" xmlns="http://www.w3.org/2000/svg">
<rect width="32" height="32" rx="16" fill="#3173F2"/>
<g clip-path="url(#clip0_2113_20701)">
<path fill-rule="evenodd" clip-rule="evenodd" d="M21.1279 17.0624C21.5996 17.5099 22.0974 17.931 22.5204 18.4237C22.7073 18.6426 22.8842 18.8686 23.0196 19.1227C23.2113 19.4838 23.0376 19.8813 22.7044 19.9029L20.633 19.902C20.0987 19.9451 19.6725 19.736 19.3141 19.381C19.0273 19.0971 18.7617 18.7949 18.486 18.5014C18.3729 18.3815 18.2546 18.2686 18.1132 18.1794C17.8304 18.001 17.585 18.0556 17.4234 18.3422C17.2588 18.6338 17.2215 18.9566 17.2053 19.2815C17.1831 19.7556 17.0357 19.8802 16.5457 19.9019C15.4986 19.9499 14.5048 19.7959 13.5816 19.2826C12.7677 18.83 12.1366 18.1911 11.5872 17.4677C10.5176 16.0592 9.69854 14.5116 8.96237 12.9205C8.79666 12.562 8.91784 12.3696 9.3248 12.3628C10.0006 12.3501 10.6762 12.351 11.3528 12.3619C11.6274 12.3658 11.8093 12.5189 11.9153 12.7711C12.2809 13.6448 12.7283 14.4761 13.2898 15.2466C13.4394 15.4517 13.5919 15.6568 13.809 15.8012C14.0492 15.9611 14.2321 15.9081 14.3451 15.648C14.4168 15.4831 14.4482 15.3055 14.4644 15.1289C14.5179 14.5212 14.525 13.9146 14.4311 13.3091C14.3734 12.9312 14.1544 12.6866 13.7664 12.6151C13.5685 12.5786 13.5979 12.507 13.6938 12.3972C13.8603 12.2078 14.0169 12.0898 14.3291 12.0898H16.6701C17.0387 12.1605 17.1205 12.3214 17.171 12.6819L17.173 15.2092C17.169 15.3487 17.2447 15.7628 17.5033 15.8551C17.7102 15.9209 17.8466 15.7599 17.9708 15.6324C18.5313 15.0542 18.9314 14.3709 19.2888 13.6634C19.4474 13.3523 19.5837 13.0292 19.7159 12.7064C19.8138 12.4668 19.9675 12.349 20.2451 12.3542L22.4982 12.3561C22.5651 12.3561 22.6327 12.3571 22.6974 12.3679C23.077 12.4307 23.1811 12.5895 23.0638 12.9498C22.879 13.5151 22.5195 13.9862 22.168 14.4595C21.7923 14.9648 21.3904 15.4528 21.0178 15.9611C20.6755 16.4253 20.7027 16.6593 21.1279 17.0624Z" fill="white"/>
</g>
<defs>
<clipPath id="clip0_2113_20701">
<rect width="16" height="16" fill="white" transform="translate(8 8)"/>
</clipPath>
</defs>
</svg>
