<svg width="60" height="60" viewBox="0 0 60 60" fill="none" xmlns="http://www.w3.org/2000/svg">
<path fill-rule="evenodd" clip-rule="evenodd" d="M30 60C46.5685 60 60 46.5685 60 30C60 13.4315 46.5685 0 30 0C13.4315 0 0 13.4315 0 30C0 46.5685 13.4315 60 30 60ZM30.5553 46.6608C29.6349 46.6608 28.8887 45.9146 28.8887 44.9941V31.1137H14.9999C14.0794 31.1137 13.3333 30.3675 13.3333 29.447C13.3333 28.5266 14.0794 27.7804 14.9999 27.7804H28.8887L28.8887 13.883C28.8887 12.9625 29.6349 12.2163 30.5553 12.2163C31.4758 12.2163 32.222 12.9625 32.222 13.883V27.7804H46.111C47.0315 27.7804 47.7777 28.5266 47.7777 29.447C47.7777 30.3675 47.0315 31.1137 46.111 31.1137H32.222V44.9941C32.222 45.9146 31.4758 46.6608 30.5553 46.6608Z" fill="white"/>
</svg>
