<svg width="60" height="60" viewBox="0 0 60 60" fill="none" xmlns="http://www.w3.org/2000/svg">
<g clip-path="url(#clip0_2217_1920)">
<path d="M0 30C0 13.431 13.428 0 30 0C46.566 0 60 13.431 60 30C60 46.569 46.566 60 30 60C13.428 60 0 46.569 0 30Z" fill="#FC3F1D"/>
<path d="M34.1086 17.2319H31.4763C26.6504 17.2319 24.1121 19.7599 24.1121 23.487C24.1121 27.7004 25.867 29.6744 29.4708 32.2054L32.4478 34.2796L23.8928 47.5H17.5L25.1776 35.6732C20.7619 32.3998 18.2834 29.2207 18.2834 23.8435C18.2834 17.1022 22.8273 12.5 31.445 12.5H40V47.4676H34.1086V17.2319Z" fill="white"/>
</g>
<defs>
<clipPath id="clip0_2217_1920">
<rect width="60" height="60" fill="white"/>
</clipPath>
</defs>
</svg>
