<svg width="570" height="427" viewBox="0 0 570 427" fill="none" xmlns="http://www.w3.org/2000/svg">
<path fill-rule="evenodd" clip-rule="evenodd" d="M384.396 94.9557C386.024 93.8768 388.217 94.3108 389.312 95.9283C390.416 97.5591 389.986 99.776 388.353 100.876L304.929 157.105C303.119 158.325 300.663 157.848 299.44 156.04C298.208 154.218 298.699 151.741 300.532 150.527L384.396 94.9557Z" fill="white"/>
<path fill-rule="evenodd" clip-rule="evenodd" d="M207.393 124.217C204.864 123.37 203.502 120.631 204.352 118.103C205.2 115.578 207.935 114.217 210.461 115.064L303.843 146.366C306.371 147.213 307.733 149.95 306.885 152.477C306.037 155.003 303.302 156.365 300.776 155.518L207.393 124.217Z" fill="white"/>
<path fill-rule="evenodd" clip-rule="evenodd" d="M267.067 307.816C278.045 316.46 289.019 325.1 299.998 333.739C310.977 325.1 321.955 316.46 332.929 307.816C324.628 256.887 316.331 205.963 308.029 155.034C305.352 153.491 302.675 151.957 299.993 150.414C297.311 151.962 294.634 153.51 291.952 155.058C283.656 205.977 275.359 256.896 267.062 307.811L267.067 307.816Z" fill="white"/>
<path fill-rule="evenodd" clip-rule="evenodd" d="M274.672 140.224C274.374 139.562 274.858 138.812 275.584 138.812H324.422C325.145 138.812 325.629 139.556 325.337 140.217L310.932 172.817C305.668 171.056 294.055 170.483 289.155 172.306L274.672 140.224Z" fill="white"/>
<path fill-rule="evenodd" clip-rule="evenodd" d="M293.867 13.3752C293.867 10.7086 296.028 8.54688 298.695 8.54688C301.362 8.54688 303.523 10.7086 303.523 13.3752V26.5839C303.523 29.2505 301.362 31.4122 298.695 31.4122C296.028 31.4122 293.867 29.2505 293.867 26.5839V13.3752Z" fill="white"/>
<path fill-rule="evenodd" clip-rule="evenodd" d="M439.987 149.75C442.652 149.75 444.811 151.91 444.811 154.574C444.811 157.238 442.652 159.398 439.987 159.398H426.749C424.085 159.398 421.925 157.238 421.925 154.574C421.925 151.91 424.085 149.75 426.749 149.75H439.987Z" fill="white"/>
<path fill-rule="evenodd" clip-rule="evenodd" d="M157.404 159.398C154.74 159.398 152.58 157.238 152.58 154.574C152.58 151.91 154.74 149.75 157.404 149.75H170.642C173.306 149.75 175.466 151.91 175.466 154.574C175.466 157.238 173.306 159.398 170.642 159.398H157.404Z" fill="white"/>
<path d="M298.692 0C341.408 0 380.091 17.3029 408.076 45.2667C436.07 73.2306 453.388 111.879 453.388 154.556C453.388 197.229 436.07 235.882 408.085 263.841C390.937 280.979 369.776 294.101 346.136 301.699L342.189 284.946C362.673 278.129 381.025 266.625 395.945 251.717C420.831 226.854 436.226 192.5 436.226 154.556C436.226 116.613 420.826 82.2584 395.941 57.3953C371.055 32.5275 336.669 17.1466 298.692 17.1466C260.719 17.1466 226.333 32.5275 201.447 57.3953C176.557 82.2584 161.162 116.613 161.162 154.556C161.162 192.5 176.557 226.85 201.443 251.717C216.956 267.212 236.155 279.023 257.615 285.727L253.678 302.466C229.062 294.996 207.034 281.566 189.308 263.846C161.319 235.882 144 197.234 144 154.561C144 111.884 161.319 73.2353 189.312 45.2715C217.302 17.3029 255.976 0.00473402 298.692 0.00473402V0Z" fill="white"/>
<g opacity="0.5">
<path d="M441.388 59.903C441.388 60.2796 441.277 60.6477 441.068 60.9608C440.859 61.2738 440.562 61.5177 440.214 61.6616C439.867 61.8055 439.484 61.8429 439.116 61.7691C438.747 61.6952 438.408 61.5135 438.143 61.2469C437.877 60.9802 437.697 60.6407 437.624 60.2712C437.551 59.9018 437.589 59.519 437.734 59.1713C437.879 58.8237 438.123 58.5268 438.436 58.3183C438.749 58.1098 439.117 57.999 439.493 58C439.742 58 439.989 58.0493 440.219 58.145C440.45 58.2407 440.659 58.3809 440.835 58.5577C441.011 58.7345 441.151 58.9443 441.246 59.1751C441.34 59.406 441.389 59.6533 441.388 59.903Z" fill="white"/>
<path d="M514.574 59.903C514.574 60.2794 514.463 60.6473 514.254 60.9602C514.045 61.2732 513.748 61.5171 513.401 61.6611C513.054 61.8052 512.672 61.8429 512.303 61.7694C511.934 61.696 511.596 61.5148 511.33 61.2486C511.064 60.9825 510.883 60.6434 510.81 60.2743C510.737 59.9051 510.774 59.5225 510.918 59.1748C511.062 58.827 511.306 58.5298 511.618 58.3207C511.931 58.1116 512.298 58 512.674 58C512.923 58 513.17 58.0492 513.401 58.1449C513.632 58.2405 513.841 58.3807 514.017 58.5574C514.194 58.7341 514.334 58.9439 514.429 59.1748C514.525 59.4056 514.574 59.6531 514.574 59.903Z" fill="white"/>
<path d="M496.28 59.903C496.28 60.2794 496.169 60.6473 495.96 60.9602C495.751 61.2732 495.454 61.5171 495.107 61.6611C494.76 61.8052 494.378 61.8429 494.009 61.7694C493.64 61.696 493.302 61.5148 493.036 61.2486C492.77 60.9825 492.589 60.6434 492.516 60.2743C492.443 59.9051 492.48 59.5225 492.624 59.1748C492.768 58.827 493.012 58.5298 493.324 58.3207C493.637 58.1116 494.004 58 494.38 58C494.629 58 494.877 58.0492 495.107 58.1449C495.338 58.2405 495.547 58.3807 495.724 58.5574C495.9 58.7341 496.04 58.9439 496.135 59.1748C496.231 59.4056 496.28 59.6531 496.28 59.903Z" fill="white"/>
<path d="M459.687 59.903C459.687 60.2794 459.576 60.6473 459.367 60.9602C459.158 61.2732 458.861 61.5171 458.514 61.6611C458.167 61.8052 457.785 61.8429 457.416 61.7694C457.048 61.696 456.709 61.5148 456.443 61.2486C456.178 60.9825 455.997 60.6434 455.923 60.2743C455.85 59.9051 455.888 59.5225 456.031 59.1748C456.175 58.827 456.419 58.5298 456.731 58.3207C457.044 58.1116 457.411 58 457.787 58C458.291 58 458.774 58.2005 459.131 58.5574C459.487 58.9143 459.687 59.3983 459.687 59.903Z" fill="white"/>
<path d="M477.981 59.903C477.981 60.2796 477.87 60.6477 477.661 60.9608C477.452 61.2738 477.154 61.5177 476.807 61.6616C476.459 61.8055 476.077 61.8429 475.708 61.7691C475.34 61.6952 475.001 61.5135 474.735 61.2469C474.47 60.9802 474.289 60.6407 474.217 60.2712C474.144 59.9018 474.182 59.519 474.327 59.1713C474.471 58.8237 474.716 58.5268 475.029 58.3183C475.342 58.1098 475.71 57.999 476.086 58C476.335 58 476.582 58.0493 476.812 58.145C477.043 58.2407 477.252 58.3809 477.428 58.5577C477.604 58.7345 477.743 58.9443 477.838 59.1751C477.933 59.406 477.982 59.6533 477.981 59.903Z" fill="white"/>
<path d="M532.873 59.903C532.873 60.2794 532.761 60.6473 532.552 60.9602C532.344 61.2732 532.047 61.5171 531.7 61.6611C531.352 61.8052 530.97 61.8429 530.602 61.7694C530.233 61.696 529.895 61.5148 529.629 61.2486C529.363 60.9825 529.182 60.6434 529.109 60.2743C529.035 59.9051 529.073 59.5225 529.217 59.1748C529.361 58.827 529.604 58.5298 529.917 58.3207C530.229 58.1116 530.597 58 530.972 58C531.476 58 531.96 58.2005 532.316 58.5574C532.673 58.9143 532.873 59.3983 532.873 59.903Z" fill="white"/>
<path d="M551.167 59.903C551.167 60.2794 551.055 60.6473 550.847 60.9602C550.638 61.2732 550.341 61.5171 549.994 61.6611C549.647 61.8052 549.264 61.8429 548.896 61.7694C548.527 61.696 548.189 61.5148 547.923 61.2486C547.657 60.9825 547.476 60.6434 547.403 60.2743C547.329 59.9051 547.367 59.5225 547.511 59.1748C547.655 58.827 547.898 58.5298 548.211 58.3207C548.523 58.1116 548.891 58 549.267 58C549.516 58 549.763 58.0492 549.994 58.1449C550.224 58.2405 550.434 58.3807 550.61 58.5574C550.787 58.7341 550.927 58.9439 551.022 59.1748C551.118 59.4056 551.167 59.6531 551.167 59.903Z" fill="white"/>
<path d="M569.461 59.903C569.461 60.2796 569.349 60.6477 569.14 60.9608C568.931 61.2738 568.634 61.5177 568.287 61.6616C567.939 61.8055 567.557 61.8429 567.188 61.7691C566.819 61.6952 566.481 61.5135 566.215 61.2469C565.949 60.9802 565.769 60.6407 565.696 60.2712C565.623 59.9018 565.662 59.519 565.806 59.1713C565.951 58.8237 566.195 58.5268 566.508 58.3183C566.821 58.1098 567.189 57.999 567.565 58C567.815 58 568.062 58.0493 568.292 58.145C568.522 58.2407 568.731 58.3809 568.907 58.5577C569.083 58.7345 569.223 58.9443 569.318 59.1751C569.413 59.406 569.461 59.6533 569.461 59.903Z" fill="white"/>
<path d="M423.094 59.903C423.094 60.2794 422.983 60.6473 422.774 60.9602C422.565 61.2732 422.269 61.5171 421.921 61.6611C421.574 61.8052 421.192 61.8429 420.823 61.7694C420.455 61.696 420.116 61.5148 419.851 61.2486C419.585 60.9825 419.404 60.6434 419.33 60.2743C419.257 59.9051 419.295 59.5225 419.439 59.1748C419.582 58.827 419.826 58.5298 420.138 58.3207C420.451 58.1116 420.818 58 421.194 58C421.444 58 421.691 58.0492 421.921 58.1449C422.152 58.2405 422.361 58.3807 422.538 58.5574C422.714 58.7341 422.854 58.9439 422.95 59.1748C423.045 59.4056 423.094 59.6531 423.094 59.903Z" fill="white"/>
<path d="M404.801 59.903C404.801 60.2794 404.689 60.6473 404.48 60.9602C404.271 61.2732 403.975 61.5171 403.627 61.6611C403.28 61.8052 402.898 61.8429 402.53 61.7694C402.161 61.696 401.822 61.5148 401.557 61.2486C401.291 60.9825 401.11 60.6434 401.037 60.2743C400.963 59.9051 401.001 59.5225 401.145 59.1748C401.288 58.827 401.532 58.5298 401.845 58.3207C402.157 58.1116 402.524 58 402.9 58C403.15 58 403.397 58.0492 403.627 58.1449C403.858 58.2405 404.068 58.3807 404.244 58.5574C404.42 58.7341 404.56 58.9439 404.656 59.1748C404.751 59.4056 404.801 59.6531 404.801 59.903Z" fill="white"/>
<path d="M441.388 75.1564C441.388 75.533 441.277 75.9011 441.068 76.2142C440.859 76.5272 440.562 76.7711 440.214 76.915C439.867 77.0589 439.484 77.0963 439.116 77.0225C438.747 76.9487 438.408 76.7669 438.143 76.5003C437.877 76.2337 437.697 75.8941 437.624 75.5246C437.551 75.1552 437.589 74.7724 437.734 74.4248C437.879 74.0771 438.123 73.7802 438.436 73.5717C438.749 73.3632 439.117 73.2524 439.493 73.2534C439.742 73.2534 439.989 73.3027 440.219 73.3984C440.45 73.4941 440.659 73.6343 440.835 73.8111C441.011 73.9879 441.151 74.1977 441.246 74.4286C441.34 74.6594 441.389 74.9067 441.388 75.1564Z" fill="white"/>
<path d="M514.574 75.1564C514.574 75.5328 514.463 75.9007 514.254 76.2137C514.045 76.5266 513.748 76.7705 513.401 76.9146C513.054 77.0586 512.672 77.0963 512.303 77.0228C511.934 76.9494 511.596 76.7682 511.33 76.502C511.064 76.2359 510.883 75.8968 510.81 75.5277C510.737 75.1585 510.774 74.7759 510.918 74.4282C511.062 74.0804 511.306 73.7832 511.618 73.5741C511.931 73.365 512.298 73.2534 512.674 73.2534C513.178 73.2534 513.661 73.4539 514.017 73.8108C514.374 74.1677 514.574 74.6517 514.574 75.1564Z" fill="white"/>
<path d="M496.28 75.1564C496.28 75.5328 496.169 75.9007 495.96 76.2137C495.751 76.5266 495.454 76.7705 495.107 76.9146C494.76 77.0586 494.378 77.0963 494.009 77.0228C493.64 76.9494 493.302 76.7682 493.036 76.502C492.77 76.2359 492.589 75.8968 492.516 75.5277C492.443 75.1585 492.48 74.7759 492.624 74.4282C492.768 74.0804 493.012 73.7832 493.324 73.5741C493.637 73.365 494.004 73.2534 494.38 73.2534C494.884 73.2534 495.367 73.4539 495.724 73.8108C496.08 74.1677 496.28 74.6517 496.28 75.1564Z" fill="white"/>
<path d="M459.687 75.1564C459.687 75.5328 459.576 75.9007 459.367 76.2137C459.158 76.5266 458.861 76.7705 458.514 76.9146C458.167 77.0586 457.785 77.0963 457.416 77.0228C457.048 76.9494 456.709 76.7682 456.443 76.502C456.178 76.2359 455.997 75.8968 455.923 75.5277C455.85 75.1585 455.888 74.7759 456.031 74.4282C456.175 74.0804 456.419 73.7832 456.731 73.5741C457.044 73.365 457.411 73.2534 457.787 73.2534C458.291 73.2534 458.774 73.4539 459.131 73.8108C459.487 74.1677 459.687 74.6517 459.687 75.1564Z" fill="white"/>
<path d="M477.981 75.1564C477.981 75.533 477.87 75.9011 477.661 76.2142C477.452 76.5272 477.154 76.7711 476.807 76.915C476.459 77.0589 476.077 77.0963 475.708 77.0225C475.34 76.9487 475.001 76.7669 474.735 76.5003C474.47 76.2337 474.289 75.8941 474.217 75.5246C474.144 75.1552 474.182 74.7724 474.327 74.4248C474.471 74.0771 474.716 73.7802 475.029 73.5717C475.342 73.3632 475.71 73.2524 476.086 73.2534C476.335 73.2534 476.582 73.3027 476.812 73.3984C477.043 73.4941 477.252 73.6343 477.428 73.8111C477.604 73.9879 477.743 74.1977 477.838 74.4286C477.933 74.6594 477.982 74.9067 477.981 75.1564Z" fill="white"/>
<path d="M532.873 75.1564C532.873 75.5328 532.761 75.9007 532.552 76.2137C532.344 76.5266 532.047 76.7705 531.7 76.9146C531.352 77.0586 530.97 77.0963 530.602 77.0228C530.233 76.9494 529.895 76.7682 529.629 76.502C529.363 76.2359 529.182 75.8968 529.109 75.5277C529.035 75.1585 529.073 74.7759 529.217 74.4282C529.361 74.0804 529.604 73.7832 529.917 73.5741C530.229 73.365 530.597 73.2534 530.972 73.2534C531.476 73.2534 531.96 73.4539 532.316 73.8108C532.673 74.1677 532.873 74.6517 532.873 75.1564Z" fill="white"/>
<path d="M551.167 75.1564C551.167 75.5328 551.055 75.9007 550.847 76.2137C550.638 76.5266 550.341 76.7705 549.994 76.9146C549.647 77.0586 549.264 77.0963 548.896 77.0228C548.527 76.9494 548.189 76.7682 547.923 76.502C547.657 76.2359 547.476 75.8968 547.403 75.5277C547.329 75.1585 547.367 74.7759 547.511 74.4282C547.655 74.0804 547.898 73.7832 548.211 73.5741C548.523 73.365 548.891 73.2534 549.267 73.2534C549.771 73.2534 550.254 73.4539 550.61 73.8108C550.967 74.1677 551.167 74.6517 551.167 75.1564Z" fill="white"/>
<path d="M569.461 75.1564C569.461 75.533 569.349 75.9011 569.14 76.2142C568.931 76.5272 568.634 76.7711 568.287 76.915C567.939 77.0589 567.557 77.0963 567.188 77.0225C566.819 76.9487 566.481 76.7669 566.215 76.5003C565.949 76.2337 565.769 75.8941 565.696 75.5246C565.623 75.1552 565.662 74.7724 565.806 74.4248C565.951 74.0771 566.195 73.7802 566.508 73.5717C566.821 73.3632 567.189 73.2524 567.565 73.2534C567.815 73.2534 568.062 73.3027 568.292 73.3984C568.522 73.4941 568.731 73.6343 568.907 73.8111C569.083 73.9879 569.223 74.1977 569.318 74.4286C569.413 74.6594 569.461 74.9067 569.461 75.1564Z" fill="white"/>
<path d="M423.094 75.1564C423.094 75.5328 422.983 75.9007 422.774 76.2137C422.565 76.5266 422.269 76.7705 421.921 76.9146C421.574 77.0586 421.192 77.0963 420.823 77.0228C420.455 76.9494 420.116 76.7682 419.851 76.502C419.585 76.2359 419.404 75.8968 419.33 75.5277C419.257 75.1585 419.295 74.7759 419.439 74.4282C419.582 74.0804 419.826 73.7832 420.138 73.5741C420.451 73.365 420.818 73.2534 421.194 73.2534C421.698 73.2534 422.181 73.4539 422.538 73.8108C422.894 74.1677 423.094 74.6517 423.094 75.1564Z" fill="white"/>
<path d="M404.801 75.1564C404.801 75.5328 404.689 75.9007 404.48 76.2137C404.271 76.5266 403.975 76.7705 403.627 76.9146C403.28 77.0586 402.898 77.0963 402.53 77.0228C402.161 76.9494 401.822 76.7682 401.557 76.502C401.291 76.2359 401.11 75.8968 401.037 75.5277C400.963 75.1585 401.001 74.7759 401.145 74.4282C401.288 74.0804 401.532 73.7832 401.845 73.5741C402.157 73.365 402.524 73.2534 402.9 73.2534C403.404 73.2534 403.888 73.4539 404.244 73.8108C404.6 74.1677 404.801 74.6517 404.801 75.1564Z" fill="white"/>
<path d="M441.388 90.4103C441.388 90.7869 441.277 91.155 441.068 91.4681C440.859 91.7811 440.562 92.025 440.214 92.1689C439.867 92.3128 439.484 92.3502 439.116 92.2764C438.747 92.2026 438.408 92.0208 438.143 91.7542C437.877 91.4876 437.697 91.148 437.624 90.7785C437.551 90.4091 437.589 90.0263 437.734 89.6787C437.879 89.331 438.123 89.0342 438.436 88.8256C438.749 88.6171 439.117 88.5064 439.493 88.5073C439.742 88.5073 439.989 88.5566 440.219 88.6523C440.45 88.748 440.659 88.8882 440.835 89.065C441.011 89.2418 441.151 89.4516 441.246 89.6824C441.34 89.9133 441.389 90.1606 441.388 90.4103Z" fill="white"/>
<path d="M514.574 90.4103C514.574 90.7867 514.463 91.1546 514.254 91.4676C514.045 91.7805 513.748 92.0244 513.401 92.1684C513.054 92.3125 512.672 92.3502 512.303 92.2767C511.934 92.2033 511.596 92.0221 511.33 91.7559C511.064 91.4898 510.883 91.1507 510.81 90.7816C510.737 90.4124 510.774 90.0298 510.918 89.6821C511.062 89.3343 511.306 89.0371 511.618 88.828C511.931 88.6189 512.298 88.5073 512.674 88.5073C513.178 88.5073 513.661 88.7078 514.017 89.0647C514.374 89.4216 514.574 89.9056 514.574 90.4103Z" fill="white"/>
<path d="M496.28 90.4103C496.28 90.7867 496.169 91.1546 495.96 91.4676C495.751 91.7805 495.454 92.0244 495.107 92.1684C494.76 92.3125 494.378 92.3502 494.009 92.2767C493.64 92.2033 493.302 92.0221 493.036 91.7559C492.77 91.4898 492.589 91.1507 492.516 90.7816C492.443 90.4124 492.48 90.0298 492.624 89.6821C492.768 89.3343 493.012 89.0371 493.324 88.828C493.637 88.6189 494.004 88.5073 494.38 88.5073C494.884 88.5073 495.367 88.7078 495.724 89.0647C496.08 89.4216 496.28 89.9056 496.28 90.4103Z" fill="white"/>
<path d="M459.687 90.4103C459.687 90.7867 459.576 91.1546 459.367 91.4676C459.158 91.7805 458.861 92.0244 458.514 92.1684C458.167 92.3125 457.785 92.3502 457.416 92.2767C457.048 92.2033 456.709 92.0221 456.443 91.7559C456.178 91.4898 455.997 91.1507 455.923 90.7816C455.85 90.4124 455.888 90.0298 456.031 89.6821C456.175 89.3343 456.419 89.0371 456.731 88.828C457.044 88.6189 457.411 88.5073 457.787 88.5073C458.291 88.5073 458.774 88.7078 459.131 89.0647C459.487 89.4216 459.687 89.9056 459.687 90.4103Z" fill="white"/>
<path d="M477.981 90.4103C477.981 90.7869 477.87 91.155 477.661 91.4681C477.452 91.7811 477.154 92.025 476.807 92.1689C476.459 92.3128 476.077 92.3502 475.708 92.2764C475.34 92.2026 475.001 92.0208 474.735 91.7542C474.47 91.4876 474.289 91.148 474.217 90.7785C474.144 90.4091 474.182 90.0263 474.327 89.6787C474.471 89.331 474.716 89.0342 475.029 88.8256C475.342 88.6171 475.71 88.5064 476.086 88.5073C476.335 88.5073 476.582 88.5566 476.812 88.6523C477.043 88.748 477.252 88.8882 477.428 89.065C477.604 89.2418 477.743 89.4516 477.838 89.6824C477.933 89.9133 477.982 90.1606 477.981 90.4103Z" fill="white"/>
<path d="M532.873 90.4103C532.873 90.7867 532.761 91.1546 532.552 91.4676C532.344 91.7805 532.047 92.0244 531.7 92.1684C531.352 92.3125 530.97 92.3502 530.602 92.2767C530.233 92.2033 529.895 92.0221 529.629 91.7559C529.363 91.4898 529.182 91.1507 529.109 90.7816C529.035 90.4124 529.073 90.0298 529.217 89.6821C529.361 89.3343 529.604 89.0371 529.917 88.828C530.229 88.6189 530.597 88.5073 530.972 88.5073C531.476 88.5073 531.96 88.7078 532.316 89.0647C532.673 89.4216 532.873 89.9056 532.873 90.4103Z" fill="white"/>
<path d="M551.167 90.4103C551.167 90.7867 551.055 91.1546 550.847 91.4676C550.638 91.7805 550.341 92.0244 549.994 92.1684C549.647 92.3125 549.264 92.3502 548.896 92.2767C548.527 92.2033 548.189 92.0221 547.923 91.7559C547.657 91.4898 547.476 91.1507 547.403 90.7816C547.329 90.4124 547.367 90.0298 547.511 89.6821C547.655 89.3343 547.898 89.0371 548.211 88.828C548.523 88.6189 548.891 88.5073 549.267 88.5073C549.771 88.5073 550.254 88.7078 550.61 89.0647C550.967 89.4216 551.167 89.9056 551.167 90.4103Z" fill="white"/>
<path d="M569.461 90.4103C569.461 90.7869 569.349 91.155 569.14 91.4681C568.931 91.7811 568.634 92.025 568.287 92.1689C567.939 92.3128 567.557 92.3502 567.188 92.2764C566.819 92.2026 566.481 92.0208 566.215 91.7542C565.949 91.4876 565.769 91.148 565.696 90.7785C565.623 90.4091 565.662 90.0263 565.806 89.6787C565.951 89.331 566.195 89.0342 566.508 88.8256C566.821 88.6171 567.189 88.5064 567.565 88.5073C567.815 88.5073 568.062 88.5566 568.292 88.6523C568.522 88.748 568.731 88.8882 568.907 89.065C569.083 89.2418 569.223 89.4516 569.318 89.6824C569.413 89.9133 569.461 90.1606 569.461 90.4103Z" fill="white"/>
<path d="M423.094 90.4103C423.094 90.7867 422.983 91.1546 422.774 91.4676C422.565 91.7805 422.269 92.0244 421.921 92.1684C421.574 92.3125 421.192 92.3502 420.823 92.2767C420.455 92.2033 420.116 92.0221 419.851 91.7559C419.585 91.4898 419.404 91.1507 419.33 90.7816C419.257 90.4124 419.295 90.0298 419.439 89.6821C419.582 89.3343 419.826 89.0371 420.138 88.828C420.451 88.6189 420.818 88.5073 421.194 88.5073C421.698 88.5073 422.181 88.7078 422.538 89.0647C422.894 89.4216 423.094 89.9056 423.094 90.4103Z" fill="white"/>
<path d="M404.801 90.4103C404.801 90.7867 404.689 91.1546 404.48 91.4676C404.271 91.7805 403.975 92.0244 403.627 92.1684C403.28 92.3125 402.898 92.3502 402.53 92.2767C402.161 92.2033 401.822 92.0221 401.557 91.7559C401.291 91.4898 401.11 91.1507 401.037 90.7816C400.963 90.4124 401.001 90.0298 401.145 89.6821C401.288 89.3343 401.532 89.0371 401.845 88.828C402.157 88.6189 402.524 88.5073 402.9 88.5073C403.404 88.5073 403.888 88.7078 404.244 89.0647C404.6 89.4216 404.801 89.9056 404.801 90.4103Z" fill="white"/>
<path d="M441.389 105.664C441.39 106.04 441.279 106.409 441.07 106.723C440.862 107.037 440.565 107.281 440.218 107.426C439.87 107.57 439.488 107.609 439.119 107.535C438.75 107.462 438.411 107.281 438.144 107.014C437.878 106.748 437.697 106.408 437.624 106.039C437.551 105.669 437.589 105.286 437.734 104.938C437.878 104.59 438.122 104.293 438.436 104.084C438.749 103.876 439.117 103.765 439.493 103.766C439.996 103.766 440.478 103.966 440.833 104.322C441.189 104.678 441.389 105.16 441.389 105.664Z" fill="white"/>
<path d="M514.574 105.664C514.575 106.04 514.464 106.409 514.256 106.722C514.048 107.036 513.752 107.281 513.404 107.425C513.057 107.57 512.675 107.609 512.306 107.536C511.937 107.463 511.598 107.282 511.332 107.016C511.066 106.75 510.884 106.411 510.81 106.042C510.737 105.672 510.774 105.29 510.918 104.942C511.061 104.594 511.305 104.296 511.617 104.087C511.93 103.877 512.298 103.766 512.674 103.766C513.177 103.766 513.659 103.965 514.016 104.321C514.372 104.677 514.573 105.16 514.574 105.664Z" fill="white"/>
<path d="M496.28 105.664C496.281 106.04 496.17 106.409 495.962 106.722C495.754 107.036 495.457 107.281 495.11 107.425C494.763 107.57 494.381 107.609 494.012 107.536C493.643 107.463 493.304 107.282 493.038 107.016C492.771 106.75 492.59 106.411 492.516 106.042C492.442 105.672 492.48 105.29 492.623 104.942C492.767 104.594 493.011 104.296 493.323 104.087C493.636 103.877 494.004 103.766 494.38 103.766C494.883 103.766 495.365 103.965 495.722 104.321C496.078 104.677 496.279 105.16 496.28 105.664Z" fill="white"/>
<path d="M459.687 105.664C459.688 106.04 459.578 106.409 459.369 106.722C459.161 107.036 458.865 107.281 458.518 107.425C458.17 107.57 457.788 107.609 457.419 107.536C457.05 107.463 456.711 107.282 456.445 107.016C456.179 106.75 455.997 106.411 455.924 106.042C455.85 105.672 455.887 105.29 456.031 104.942C456.175 104.594 456.418 104.296 456.731 104.087C457.043 103.877 457.411 103.766 457.787 103.766C458.29 103.766 458.773 103.965 459.129 104.321C459.485 104.677 459.686 105.16 459.687 105.664Z" fill="white"/>
<path d="M477.981 105.664C477.982 106.04 477.871 106.409 477.663 106.723C477.455 107.037 477.158 107.281 476.81 107.426C476.463 107.57 476.08 107.609 475.711 107.535C475.342 107.462 475.003 107.281 474.737 107.014C474.471 106.748 474.29 106.408 474.217 106.039C474.144 105.669 474.182 105.286 474.326 104.938C474.471 104.59 474.715 104.293 475.028 104.084C475.342 103.876 475.71 103.765 476.086 103.766C476.588 103.766 477.071 103.966 477.426 104.322C477.781 104.678 477.981 105.16 477.981 105.664Z" fill="white"/>
<path d="M532.873 105.664C532.874 106.04 532.763 106.409 532.555 106.722C532.347 107.036 532.05 107.281 531.703 107.425C531.356 107.57 530.974 107.609 530.605 107.536C530.236 107.463 529.897 107.282 529.631 107.016C529.364 106.75 529.183 106.411 529.109 106.042C529.035 105.672 529.073 105.29 529.216 104.942C529.36 104.594 529.604 104.296 529.916 104.087C530.229 103.877 530.596 103.766 530.973 103.766C531.476 103.766 531.958 103.965 532.315 104.321C532.671 104.677 532.871 105.16 532.873 105.664Z" fill="white"/>
<path d="M551.167 105.664C551.168 106.04 551.057 106.409 550.849 106.722C550.641 107.036 550.344 107.281 549.997 107.425C549.65 107.57 549.268 107.609 548.899 107.536C548.53 107.463 548.191 107.282 547.925 107.016C547.658 106.75 547.477 106.411 547.403 106.042C547.329 105.672 547.367 105.29 547.51 104.942C547.654 104.594 547.898 104.296 548.21 104.087C548.523 103.877 548.89 103.766 549.267 103.766C549.77 103.766 550.252 103.965 550.609 104.321C550.965 104.677 551.166 105.16 551.167 105.664Z" fill="white"/>
<path d="M569.461 105.664C569.462 106.04 569.351 106.409 569.143 106.723C568.934 107.037 568.637 107.281 568.29 107.426C567.943 107.57 567.56 107.609 567.191 107.535C566.822 107.462 566.483 107.281 566.217 107.014C565.951 106.748 565.77 106.408 565.696 106.039C565.623 105.669 565.661 105.286 565.806 104.938C565.95 104.59 566.195 104.293 566.508 104.084C566.821 103.876 567.189 103.765 567.565 103.766C568.068 103.766 568.55 103.966 568.906 104.322C569.261 104.678 569.461 105.16 569.461 105.664Z" fill="white"/>
<path d="M423.095 105.664C423.095 106.04 422.985 106.409 422.777 106.722C422.568 107.036 422.272 107.281 421.925 107.425C421.578 107.57 421.195 107.609 420.827 107.536C420.458 107.463 420.119 107.282 419.852 107.016C419.586 106.75 419.405 106.411 419.331 106.042C419.257 105.672 419.294 105.29 419.438 104.942C419.582 104.594 419.825 104.296 420.138 104.087C420.451 103.877 420.818 103.766 421.194 103.766C421.697 103.766 422.18 103.965 422.536 104.321C422.892 104.677 423.093 105.16 423.095 105.664Z" fill="white"/>
<path d="M404.801 105.664C404.802 106.04 404.691 106.409 404.483 106.722C404.274 107.036 403.978 107.281 403.631 107.425C403.284 107.57 402.901 107.609 402.533 107.536C402.164 107.463 401.825 107.282 401.558 107.016C401.292 106.75 401.111 106.411 401.037 106.042C400.963 105.672 401.001 105.29 401.144 104.942C401.288 104.594 401.531 104.296 401.844 104.087C402.157 103.877 402.524 103.766 402.9 103.766C403.403 103.766 403.886 103.965 404.242 104.321C404.598 104.677 404.799 105.16 404.801 105.664Z" fill="white"/>
</g>
<g opacity="0.5">
<path d="M40.3884 300.903C40.3884 301.28 40.2768 301.648 40.0678 301.961C39.8587 302.274 39.5617 302.518 39.2142 302.662C38.8667 302.805 38.4844 302.843 38.1156 302.769C37.7469 302.695 37.4083 302.514 37.1427 302.247C36.8772 301.98 36.6966 301.641 36.6238 301.271C36.551 300.902 36.5894 300.519 36.734 300.171C36.8785 299.824 37.1229 299.527 37.436 299.318C37.7492 299.11 38.117 298.999 38.4931 299C38.7424 299 38.9892 299.049 39.2195 299.145C39.4498 299.241 39.6589 299.381 39.835 299.558C40.011 299.734 40.1506 299.944 40.2455 300.175C40.3405 300.406 40.389 300.653 40.3884 300.903Z" fill="white"/>
<path d="M113.574 300.903C113.574 301.279 113.463 301.647 113.254 301.96C113.045 302.273 112.748 302.517 112.401 302.661C112.054 302.805 111.672 302.843 111.303 302.769C110.934 302.696 110.596 302.515 110.33 302.249C110.064 301.982 109.883 301.643 109.81 301.274C109.737 300.905 109.774 300.522 109.918 300.175C110.062 299.827 110.306 299.53 110.618 299.321C110.931 299.112 111.298 299 111.674 299C111.923 299 112.17 299.049 112.401 299.145C112.632 299.24 112.841 299.381 113.017 299.557C113.194 299.734 113.334 299.944 113.429 300.175C113.525 300.406 113.574 300.653 113.574 300.903Z" fill="white"/>
<path d="M95.2802 300.903C95.2802 301.279 95.1687 301.647 94.9599 301.96C94.7511 302.273 94.4543 302.517 94.1071 302.661C93.7598 302.805 93.3777 302.843 93.0091 302.769C92.6405 302.696 92.3018 302.515 92.0361 302.249C91.7703 301.982 91.5893 301.643 91.516 301.274C91.4427 300.905 91.4803 300.522 91.6242 300.175C91.768 299.827 92.0116 299.53 92.3241 299.321C92.6366 299.112 93.004 299 93.3798 299C93.6294 299 93.8765 299.049 94.1071 299.145C94.3376 299.24 94.5471 299.381 94.7235 299.557C94.9 299.734 95.04 299.944 95.1355 300.175C95.231 300.406 95.2802 300.653 95.2802 300.903Z" fill="white"/>
<path d="M58.6873 300.903C58.6873 301.279 58.5759 301.647 58.3671 301.96C58.1583 302.273 57.8614 302.517 57.5142 302.661C57.167 302.805 56.7849 302.843 56.4163 302.769C56.0477 302.696 55.7091 302.515 55.4433 302.249C55.1775 301.982 54.9966 301.643 54.9232 301.274C54.8499 300.905 54.8875 300.522 55.0314 300.175C55.1752 299.827 55.4188 299.53 55.7313 299.321C56.0438 299.112 56.4112 299 56.787 299C57.291 299 57.7743 299.2 58.1307 299.557C58.4871 299.914 58.6873 300.398 58.6873 300.903Z" fill="white"/>
<path d="M76.9811 300.903C76.9811 301.28 76.8696 301.648 76.6605 301.961C76.4515 302.274 76.1545 302.518 75.8069 302.662C75.4594 302.805 75.0771 302.843 74.7084 302.769C74.3396 302.695 74.0011 302.514 73.7355 302.247C73.4699 301.98 73.2893 301.641 73.2166 301.271C73.1438 300.902 73.1822 300.519 73.3267 300.171C73.4713 299.824 73.7156 299.527 74.0288 299.318C74.3419 299.11 74.7098 298.999 75.0858 299C75.3351 299 75.582 299.049 75.8123 299.145C76.0426 299.241 76.2517 299.381 76.4278 299.558C76.6038 299.734 76.7433 299.944 76.8383 300.175C76.9332 300.406 76.9818 300.653 76.9811 300.903Z" fill="white"/>
<path d="M131.873 300.903C131.873 301.279 131.761 301.647 131.552 301.96C131.344 302.273 131.047 302.517 130.7 302.661C130.352 302.805 129.97 302.843 129.602 302.769C129.233 302.696 128.895 302.515 128.629 302.249C128.363 301.982 128.182 301.643 128.109 301.274C128.035 300.905 128.073 300.522 128.217 300.175C128.361 299.827 128.604 299.53 128.917 299.321C129.229 299.112 129.597 299 129.972 299C130.476 299 130.96 299.2 131.316 299.557C131.673 299.914 131.873 300.398 131.873 300.903Z" fill="white"/>
<path d="M150.167 300.903C150.167 301.279 150.055 301.647 149.847 301.96C149.638 302.273 149.341 302.517 148.994 302.661C148.647 302.805 148.264 302.843 147.896 302.769C147.527 302.696 147.189 302.515 146.923 302.249C146.657 301.982 146.476 301.643 146.403 301.274C146.329 300.905 146.367 300.522 146.511 300.175C146.655 299.827 146.898 299.53 147.211 299.321C147.523 299.112 147.891 299 148.267 299C148.516 299 148.763 299.049 148.994 299.145C149.224 299.24 149.434 299.381 149.61 299.557C149.787 299.734 149.927 299.944 150.022 300.175C150.118 300.406 150.167 300.653 150.167 300.903Z" fill="white"/>
<path d="M168.461 300.903C168.461 301.28 168.349 301.648 168.14 301.961C167.931 302.274 167.634 302.518 167.287 302.662C166.939 302.805 166.557 302.843 166.188 302.769C165.819 302.695 165.481 302.514 165.215 302.247C164.949 301.98 164.769 301.641 164.696 301.271C164.623 300.902 164.662 300.519 164.806 300.171C164.951 299.824 165.195 299.527 165.508 299.318C165.821 299.11 166.189 298.999 166.565 299C166.815 299 167.062 299.049 167.292 299.145C167.522 299.241 167.731 299.381 167.907 299.558C168.083 299.734 168.223 299.944 168.318 300.175C168.413 300.406 168.461 300.653 168.461 300.903Z" fill="white"/>
<path d="M22.0944 300.903C22.0944 301.279 21.983 301.647 21.7742 301.96C21.5653 302.273 21.2686 302.517 20.9214 302.661C20.5741 302.805 20.192 302.843 19.8234 302.769C19.4548 302.696 19.1163 302.515 18.8505 302.249C18.5848 301.982 18.4038 301.643 18.3305 301.274C18.2571 300.905 18.2947 300.522 18.4386 300.175C18.5824 299.827 18.8259 299.53 19.1384 299.321C19.4509 299.112 19.8183 299 20.1942 299C20.4437 299 20.6908 299.049 20.9214 299.145C21.1519 299.24 21.3614 299.381 21.5379 299.557C21.7143 299.734 21.8542 299.944 21.9497 300.175C22.0452 300.406 22.0944 300.653 22.0944 300.903Z" fill="white"/>
<path d="M3.80057 300.903C3.80057 301.279 3.68907 301.647 3.48026 301.96C3.27146 302.273 2.97468 302.517 2.62745 302.661C2.28023 302.805 1.89814 302.843 1.52952 302.769C1.1609 302.696 0.82234 302.515 0.556582 302.249C0.290825 301.982 0.109843 301.643 0.0365206 301.274C-0.0368017 300.905 0.000804489 300.522 0.144631 300.175C0.288458 299.827 0.53206 299.53 0.844557 299.321C1.15705 299.112 1.52441 299 1.90025 299C2.14979 299 2.3969 299.049 2.62745 299.145C2.85801 299.24 3.06751 299.381 3.24397 299.557C3.42042 299.734 3.56042 299.944 3.65592 300.175C3.75142 300.406 3.80057 300.653 3.80057 300.903Z" fill="white"/>
<path d="M40.3884 316.156C40.3884 316.533 40.2768 316.901 40.0678 317.214C39.8587 317.527 39.5617 317.771 39.2142 317.915C38.8667 318.059 38.4844 318.096 38.1156 318.022C37.7469 317.949 37.4083 317.767 37.1427 317.5C36.8772 317.234 36.6966 316.894 36.6238 316.525C36.551 316.155 36.5894 315.772 36.734 315.425C36.8785 315.077 37.1229 314.78 37.436 314.572C37.7492 314.363 38.117 314.252 38.4931 314.253C38.7424 314.253 38.9892 314.303 39.2195 314.398C39.4498 314.494 39.6589 314.634 39.835 314.811C40.011 314.988 40.1506 315.198 40.2455 315.429C40.3405 315.659 40.389 315.907 40.3884 316.156Z" fill="white"/>
<path d="M113.574 316.156C113.574 316.533 113.463 316.901 113.254 317.214C113.045 317.527 112.748 317.771 112.401 317.915C112.054 318.059 111.672 318.096 111.303 318.023C110.934 317.949 110.596 317.768 110.33 317.502C110.064 317.236 109.883 316.897 109.81 316.528C109.737 316.159 109.774 315.776 109.918 315.428C110.062 315.08 110.306 314.783 110.618 314.574C110.931 314.365 111.298 314.253 111.674 314.253C112.178 314.253 112.661 314.454 113.017 314.811C113.374 315.168 113.574 315.652 113.574 316.156Z" fill="white"/>
<path d="M95.2802 316.156C95.2802 316.533 95.1687 316.901 94.9599 317.214C94.7511 317.527 94.4543 317.771 94.1071 317.915C93.7598 318.059 93.3777 318.096 93.0091 318.023C92.6405 317.949 92.3018 317.768 92.0361 317.502C91.7703 317.236 91.5893 316.897 91.516 316.528C91.4427 316.159 91.4803 315.776 91.6242 315.428C91.768 315.08 92.0116 314.783 92.3241 314.574C92.6366 314.365 93.004 314.253 93.3798 314.253C93.8838 314.253 94.3672 314.454 94.7235 314.811C95.0799 315.168 95.2802 315.652 95.2802 316.156Z" fill="white"/>
<path d="M58.6873 316.156C58.6873 316.533 58.5759 316.901 58.3671 317.214C58.1583 317.527 57.8614 317.771 57.5142 317.915C57.167 318.059 56.7849 318.096 56.4163 318.023C56.0477 317.949 55.7091 317.768 55.4433 317.502C55.1775 317.236 54.9966 316.897 54.9232 316.528C54.8499 316.159 54.8875 315.776 55.0314 315.428C55.1752 315.08 55.4188 314.783 55.7313 314.574C56.0438 314.365 56.4112 314.253 56.787 314.253C57.291 314.253 57.7743 314.454 58.1307 314.811C58.4871 315.168 58.6873 315.652 58.6873 316.156Z" fill="white"/>
<path d="M76.9811 316.156C76.9811 316.533 76.8696 316.901 76.6605 317.214C76.4515 317.527 76.1545 317.771 75.8069 317.915C75.4594 318.059 75.0771 318.096 74.7084 318.022C74.3396 317.949 74.0011 317.767 73.7355 317.5C73.4699 317.234 73.2893 316.894 73.2166 316.525C73.1438 316.155 73.1822 315.772 73.3267 315.425C73.4713 315.077 73.7156 314.78 74.0288 314.572C74.3419 314.363 74.7098 314.252 75.0858 314.253C75.3351 314.253 75.582 314.303 75.8123 314.398C76.0426 314.494 76.2517 314.634 76.4278 314.811C76.6038 314.988 76.7433 315.198 76.8383 315.429C76.9332 315.659 76.9818 315.907 76.9811 316.156Z" fill="white"/>
<path d="M131.873 316.156C131.873 316.533 131.761 316.901 131.552 317.214C131.344 317.527 131.047 317.771 130.7 317.915C130.352 318.059 129.97 318.096 129.602 318.023C129.233 317.949 128.895 317.768 128.629 317.502C128.363 317.236 128.182 316.897 128.109 316.528C128.035 316.159 128.073 315.776 128.217 315.428C128.361 315.08 128.604 314.783 128.917 314.574C129.229 314.365 129.597 314.253 129.972 314.253C130.476 314.253 130.96 314.454 131.316 314.811C131.673 315.168 131.873 315.652 131.873 316.156Z" fill="white"/>
<path d="M150.167 316.156C150.167 316.533 150.055 316.901 149.847 317.214C149.638 317.527 149.341 317.771 148.994 317.915C148.647 318.059 148.264 318.096 147.896 318.023C147.527 317.949 147.189 317.768 146.923 317.502C146.657 317.236 146.476 316.897 146.403 316.528C146.329 316.159 146.367 315.776 146.511 315.428C146.655 315.08 146.898 314.783 147.211 314.574C147.523 314.365 147.891 314.253 148.267 314.253C148.771 314.253 149.254 314.454 149.61 314.811C149.967 315.168 150.167 315.652 150.167 316.156Z" fill="white"/>
<path d="M168.461 316.156C168.461 316.533 168.349 316.901 168.14 317.214C167.931 317.527 167.634 317.771 167.287 317.915C166.939 318.059 166.557 318.096 166.188 318.022C165.819 317.949 165.481 317.767 165.215 317.5C164.949 317.234 164.769 316.894 164.696 316.525C164.623 316.155 164.662 315.772 164.806 315.425C164.951 315.077 165.195 314.78 165.508 314.572C165.821 314.363 166.189 314.252 166.565 314.253C166.815 314.253 167.062 314.303 167.292 314.398C167.522 314.494 167.731 314.634 167.907 314.811C168.083 314.988 168.223 315.198 168.318 315.429C168.413 315.659 168.461 315.907 168.461 316.156Z" fill="white"/>
<path d="M22.0944 316.156C22.0944 316.533 21.983 316.901 21.7742 317.214C21.5653 317.527 21.2686 317.771 20.9214 317.915C20.5741 318.059 20.192 318.096 19.8234 318.023C19.4548 317.949 19.1163 317.768 18.8505 317.502C18.5848 317.236 18.4038 316.897 18.3305 316.528C18.2571 316.159 18.2947 315.776 18.4386 315.428C18.5824 315.08 18.8259 314.783 19.1384 314.574C19.4509 314.365 19.8183 314.253 20.1942 314.253C20.6981 314.253 21.1815 314.454 21.5379 314.811C21.8942 315.168 22.0944 315.652 22.0944 316.156Z" fill="white"/>
<path d="M3.80057 316.156C3.80057 316.533 3.68907 316.901 3.48026 317.214C3.27146 317.527 2.97468 317.771 2.62745 317.915C2.28023 318.059 1.89814 318.096 1.52952 318.023C1.1609 317.949 0.82234 317.768 0.556582 317.502C0.290825 317.236 0.109843 316.897 0.0365206 316.528C-0.0368017 316.159 0.000804489 315.776 0.144631 315.428C0.288458 315.08 0.53206 314.783 0.844557 314.574C1.15705 314.365 1.52441 314.253 1.90025 314.253C2.40423 314.253 2.8876 314.454 3.24397 314.811C3.60034 315.168 3.80057 315.652 3.80057 316.156Z" fill="white"/>
<path d="M40.3884 331.41C40.3884 331.787 40.2768 332.155 40.0678 332.468C39.8587 332.781 39.5617 333.025 39.2142 333.169C38.8667 333.313 38.4844 333.35 38.1156 333.276C37.7469 333.203 37.4083 333.021 37.1427 332.754C36.8772 332.488 36.6966 332.148 36.6238 331.779C36.551 331.409 36.5894 331.026 36.734 330.679C36.8785 330.331 37.1229 330.034 37.436 329.826C37.7492 329.617 38.117 329.506 38.4931 329.507C38.7424 329.507 38.9892 329.557 39.2195 329.652C39.4498 329.748 39.6589 329.888 39.835 330.065C40.011 330.242 40.1506 330.452 40.2455 330.682C40.3405 330.913 40.389 331.161 40.3884 331.41Z" fill="white"/>
<path d="M113.574 331.41C113.574 331.787 113.463 332.155 113.254 332.468C113.045 332.781 112.748 333.024 112.401 333.168C112.054 333.312 111.672 333.35 111.303 333.277C110.934 333.203 110.596 333.022 110.33 332.756C110.064 332.49 109.883 332.151 109.81 331.782C109.737 331.412 109.774 331.03 109.918 330.682C110.062 330.334 110.306 330.037 110.618 329.828C110.931 329.619 111.298 329.507 111.674 329.507C112.178 329.507 112.661 329.708 113.017 330.065C113.374 330.422 113.574 330.906 113.574 331.41Z" fill="white"/>
<path d="M95.2802 331.41C95.2802 331.787 95.1687 332.155 94.9599 332.468C94.7511 332.781 94.4543 333.024 94.1071 333.168C93.7598 333.312 93.3777 333.35 93.0091 333.277C92.6405 333.203 92.3018 333.022 92.0361 332.756C91.7703 332.49 91.5893 332.151 91.516 331.782C91.4427 331.412 91.4803 331.03 91.6242 330.682C91.768 330.334 92.0116 330.037 92.3241 329.828C92.6366 329.619 93.004 329.507 93.3798 329.507C93.8838 329.507 94.3672 329.708 94.7235 330.065C95.0799 330.422 95.2802 330.906 95.2802 331.41Z" fill="white"/>
<path d="M58.6873 331.41C58.6873 331.787 58.5759 332.155 58.3671 332.468C58.1583 332.781 57.8614 333.024 57.5142 333.168C57.167 333.312 56.7849 333.35 56.4163 333.277C56.0477 333.203 55.7091 333.022 55.4433 332.756C55.1775 332.49 54.9966 332.151 54.9232 331.782C54.8499 331.412 54.8875 331.03 55.0314 330.682C55.1752 330.334 55.4188 330.037 55.7313 329.828C56.0438 329.619 56.4112 329.507 56.787 329.507C57.291 329.507 57.7743 329.708 58.1307 330.065C58.4871 330.422 58.6873 330.906 58.6873 331.41Z" fill="white"/>
<path d="M76.9811 331.41C76.9811 331.787 76.8696 332.155 76.6605 332.468C76.4515 332.781 76.1545 333.025 75.8069 333.169C75.4594 333.313 75.0771 333.35 74.7084 333.276C74.3396 333.203 74.0011 333.021 73.7355 332.754C73.4699 332.488 73.2893 332.148 73.2166 331.779C73.1438 331.409 73.1822 331.026 73.3267 330.679C73.4713 330.331 73.7156 330.034 74.0288 329.826C74.3419 329.617 74.7098 329.506 75.0858 329.507C75.3351 329.507 75.582 329.557 75.8123 329.652C76.0426 329.748 76.2517 329.888 76.4278 330.065C76.6038 330.242 76.7433 330.452 76.8383 330.682C76.9332 330.913 76.9818 331.161 76.9811 331.41Z" fill="white"/>
<path d="M131.873 331.41C131.873 331.787 131.761 332.155 131.552 332.468C131.344 332.781 131.047 333.024 130.7 333.168C130.352 333.312 129.97 333.35 129.602 333.277C129.233 333.203 128.895 333.022 128.629 332.756C128.363 332.49 128.182 332.151 128.109 331.782C128.035 331.412 128.073 331.03 128.217 330.682C128.361 330.334 128.604 330.037 128.917 329.828C129.229 329.619 129.597 329.507 129.972 329.507C130.476 329.507 130.96 329.708 131.316 330.065C131.673 330.422 131.873 330.906 131.873 331.41Z" fill="white"/>
<path d="M150.167 331.41C150.167 331.787 150.055 332.155 149.847 332.468C149.638 332.781 149.341 333.024 148.994 333.168C148.647 333.312 148.264 333.35 147.896 333.277C147.527 333.203 147.189 333.022 146.923 332.756C146.657 332.49 146.476 332.151 146.403 331.782C146.329 331.412 146.367 331.03 146.511 330.682C146.655 330.334 146.898 330.037 147.211 329.828C147.523 329.619 147.891 329.507 148.267 329.507C148.771 329.507 149.254 329.708 149.61 330.065C149.967 330.422 150.167 330.906 150.167 331.41Z" fill="white"/>
<path d="M168.461 331.41C168.461 331.787 168.349 332.155 168.14 332.468C167.931 332.781 167.634 333.025 167.287 333.169C166.939 333.313 166.557 333.35 166.188 333.276C165.819 333.203 165.481 333.021 165.215 332.754C164.949 332.488 164.769 332.148 164.696 331.779C164.623 331.409 164.662 331.026 164.806 330.679C164.951 330.331 165.195 330.034 165.508 329.826C165.821 329.617 166.189 329.506 166.565 329.507C166.815 329.507 167.062 329.557 167.292 329.652C167.522 329.748 167.731 329.888 167.907 330.065C168.083 330.242 168.223 330.452 168.318 330.682C168.413 330.913 168.461 331.161 168.461 331.41Z" fill="white"/>
<path d="M22.0944 331.41C22.0944 331.787 21.983 332.155 21.7742 332.468C21.5653 332.781 21.2686 333.024 20.9214 333.168C20.5741 333.312 20.192 333.35 19.8234 333.277C19.4548 333.203 19.1163 333.022 18.8505 332.756C18.5848 332.49 18.4038 332.151 18.3305 331.782C18.2571 331.412 18.2947 331.03 18.4386 330.682C18.5824 330.334 18.8259 330.037 19.1384 329.828C19.4509 329.619 19.8183 329.507 20.1942 329.507C20.6981 329.507 21.1815 329.708 21.5379 330.065C21.8942 330.422 22.0944 330.906 22.0944 331.41Z" fill="white"/>
<path d="M3.80057 331.41C3.80057 331.787 3.68907 332.155 3.48026 332.468C3.27146 332.781 2.97468 333.024 2.62745 333.168C2.28023 333.312 1.89814 333.35 1.52952 333.277C1.1609 333.203 0.82234 333.022 0.556582 332.756C0.290825 332.49 0.109843 332.151 0.0365206 331.782C-0.0368017 331.412 0.000804489 331.03 0.144631 330.682C0.288458 330.334 0.53206 330.037 0.844557 329.828C1.15705 329.619 1.52441 329.507 1.90025 329.507C2.40423 329.507 2.8876 329.708 3.24397 330.065C3.60034 330.422 3.80057 330.906 3.80057 331.41Z" fill="white"/>
<path d="M40.3885 346.664C40.3895 347.04 40.2788 347.409 40.0703 347.723C39.8619 348.037 39.5652 348.281 39.2177 348.426C38.8703 348.57 38.4878 348.609 38.1187 348.535C37.7496 348.462 37.4105 348.281 37.1445 348.014C36.8784 347.748 36.6973 347.408 36.6242 347.039C36.551 346.669 36.5891 346.286 36.7335 345.938C36.878 345.59 37.1223 345.293 37.4355 345.084C37.7488 344.876 38.1169 344.765 38.4932 344.766C38.9958 344.766 39.4779 344.966 39.8334 345.322C40.1888 345.678 40.3885 346.16 40.3885 346.664Z" fill="white"/>
<path d="M113.574 346.664C113.575 347.04 113.464 347.409 113.256 347.722C113.048 348.036 112.752 348.281 112.404 348.425C112.057 348.57 111.675 348.609 111.306 348.536C110.937 348.463 110.598 348.282 110.332 348.016C110.066 347.75 109.884 347.411 109.81 347.042C109.737 346.672 109.774 346.29 109.918 345.942C110.061 345.594 110.305 345.296 110.617 345.087C110.93 344.877 111.298 344.766 111.674 344.766C112.177 344.766 112.659 344.965 113.016 345.321C113.372 345.677 113.573 346.16 113.574 346.664Z" fill="white"/>
<path d="M95.2799 346.664C95.2809 347.04 95.1703 347.409 94.9621 347.722C94.7538 348.036 94.4574 348.281 94.1102 348.425C93.7631 348.57 93.3808 348.609 93.0119 348.536C92.6429 348.463 92.3038 348.282 92.0376 348.016C91.7713 347.75 91.5898 347.411 91.5161 347.042C91.4424 346.672 91.4798 346.29 91.6234 345.942C91.7671 345.594 92.0107 345.296 92.3233 345.087C92.6359 344.877 93.0035 344.766 93.3796 344.766C93.8827 344.766 94.3653 344.965 94.7215 345.321C95.0778 345.677 95.2786 346.16 95.2799 346.664Z" fill="white"/>
<path d="M58.6873 346.664C58.6883 347.04 58.5776 347.409 58.3694 347.722C58.1612 348.036 57.8648 348.281 57.5176 348.425C57.1705 348.57 56.7882 348.609 56.4193 348.536C56.0504 348.463 55.7113 348.282 55.445 348.016C55.1788 347.75 54.9973 347.411 54.9236 347.042C54.8499 346.672 54.8872 346.29 55.0309 345.942C55.1746 345.594 55.4181 345.296 55.7307 345.087C56.0433 344.877 56.411 344.766 56.787 344.766C57.2902 344.766 57.7727 344.965 58.129 345.321C58.4852 345.677 58.686 346.16 58.6873 346.664Z" fill="white"/>
<path d="M76.9811 346.664C76.9821 347.04 76.8714 347.409 76.6629 347.723C76.4545 348.037 76.1578 348.281 75.8104 348.426C75.4629 348.57 75.0804 348.609 74.7114 348.535C74.3423 348.462 74.0033 348.281 73.7372 348.014C73.4712 347.748 73.2901 347.408 73.2169 347.039C73.1438 346.669 73.1818 346.286 73.3263 345.938C73.4707 345.59 73.715 345.293 74.0283 345.084C74.3415 344.876 74.7096 344.765 75.0858 344.766C75.5885 344.766 76.0706 344.966 76.426 345.322C76.7815 345.678 76.9811 346.16 76.9811 346.664Z" fill="white"/>
<path d="M131.873 346.664C131.874 347.04 131.763 347.409 131.555 347.722C131.347 348.036 131.05 348.281 130.703 348.425C130.356 348.57 129.974 348.609 129.605 348.536C129.236 348.463 128.897 348.282 128.631 348.016C128.364 347.75 128.183 347.411 128.109 347.042C128.035 346.672 128.073 346.29 128.216 345.942C128.36 345.594 128.604 345.296 128.916 345.087C129.229 344.877 129.596 344.766 129.973 344.766C130.476 344.766 130.958 344.965 131.315 345.321C131.671 345.677 131.871 346.16 131.873 346.664Z" fill="white"/>
<path d="M150.167 346.664C150.168 347.04 150.057 347.409 149.849 347.722C149.641 348.036 149.344 348.281 148.997 348.425C148.65 348.57 148.268 348.609 147.899 348.536C147.53 348.463 147.191 348.282 146.925 348.016C146.658 347.75 146.477 347.411 146.403 347.042C146.329 346.672 146.367 346.29 146.51 345.942C146.654 345.594 146.898 345.296 147.21 345.087C147.523 344.877 147.89 344.766 148.267 344.766C148.77 344.766 149.252 344.965 149.609 345.321C149.965 345.677 150.166 346.16 150.167 346.664Z" fill="white"/>
<path d="M168.461 346.664C168.462 347.04 168.351 347.409 168.143 347.723C167.934 348.037 167.637 348.281 167.29 348.426C166.943 348.57 166.56 348.609 166.191 348.535C165.822 348.462 165.483 348.281 165.217 348.014C164.951 347.748 164.77 347.408 164.696 347.039C164.623 346.669 164.661 346.286 164.806 345.938C164.95 345.59 165.195 345.293 165.508 345.084C165.821 344.876 166.189 344.765 166.565 344.766C167.068 344.766 167.55 344.966 167.906 345.322C168.261 345.678 168.461 346.16 168.461 346.664Z" fill="white"/>
<path d="M22.0945 346.664C22.0955 347.04 21.9849 347.409 21.7767 347.722C21.5684 348.036 21.272 348.281 20.9249 348.425C20.5777 348.57 20.1955 348.609 19.8266 348.536C19.4576 348.463 19.1185 348.282 18.8523 348.016C18.586 347.75 18.4046 347.411 18.3308 347.042C18.2571 346.672 18.2944 346.29 18.4381 345.942C18.5818 345.594 18.8254 345.296 19.138 345.087C19.4506 344.877 19.8182 344.766 20.1942 344.766C20.6974 344.766 21.18 344.965 21.5362 345.321C21.8925 345.677 22.0932 346.16 22.0945 346.664Z" fill="white"/>
<path d="M3.80053 346.664C3.8015 347.04 3.69084 347.409 3.48263 347.722C3.27442 348.036 2.97799 348.281 2.63085 348.425C2.28371 348.57 1.9015 348.609 1.53256 348.536C1.16362 348.463 0.824557 348.282 0.558309 348.016C0.29206 347.75 0.11059 347.411 0.0368684 347.042C-0.0368533 346.672 0.000517098 346.29 0.144197 345.942C0.287877 345.594 0.531397 345.296 0.843998 345.087C1.1566 344.877 1.52418 344.766 1.90022 344.766C2.40335 344.766 2.88597 344.965 3.24219 345.321C3.59842 345.677 3.79923 346.16 3.80053 346.664Z" fill="white"/>
</g>
<g opacity="0.5" clip-path="url(#clip0_2113_20539)">
<path d="M59.3884 25.903C59.3884 26.2796 59.2768 26.6477 59.0678 26.9608C58.8587 27.2738 58.5617 27.5177 58.2142 27.6616C57.8667 27.8055 57.4844 27.8429 57.1156 27.7691C56.7469 27.6952 56.4083 27.5135 56.1427 27.2469C55.8772 26.9802 55.6966 26.6407 55.6238 26.2712C55.551 25.9018 55.5894 25.519 55.734 25.1713C55.8785 24.8237 56.1229 24.5268 56.436 24.3183C56.7492 24.1098 57.117 23.999 57.4931 24C57.7424 24 57.9892 24.0493 58.2195 24.145C58.4498 24.2407 58.6589 24.3809 58.835 24.5577C59.011 24.7345 59.1506 24.9443 59.2455 25.1751C59.3405 25.406 59.389 25.6533 59.3884 25.903Z" fill="white"/>
<path d="M77.6873 25.903C77.6873 26.2794 77.5759 26.6473 77.3671 26.9602C77.1583 27.2732 76.8614 27.5171 76.5142 27.6611C76.167 27.8052 75.7849 27.8429 75.4163 27.7694C75.0477 27.696 74.7091 27.5148 74.4433 27.2486C74.1775 26.9825 73.9966 26.6434 73.9232 26.2743C73.8499 25.9051 73.8875 25.5225 74.0314 25.1748C74.1752 24.827 74.4188 24.5298 74.7313 24.3207C75.0438 24.1116 75.4112 24 75.787 24C76.291 24 76.7743 24.2005 77.1307 24.5574C77.4871 24.9143 77.6873 25.3983 77.6873 25.903Z" fill="white"/>
<path d="M41.0944 25.903C41.0944 26.2794 40.983 26.6473 40.7742 26.9602C40.5653 27.2732 40.2686 27.5171 39.9214 27.6611C39.5741 27.8052 39.192 27.8429 38.8234 27.7694C38.4548 27.696 38.1163 27.5148 37.8505 27.2486C37.5848 26.9825 37.4038 26.6434 37.3305 26.2743C37.2571 25.9051 37.2947 25.5225 37.4386 25.1748C37.5824 24.827 37.8259 24.5298 38.1384 24.3207C38.4509 24.1116 38.8183 24 39.1942 24C39.4437 24 39.6908 24.0492 39.9214 24.1449C40.1519 24.2405 40.3614 24.3807 40.5379 24.5574C40.7143 24.7341 40.8542 24.9439 40.9497 25.1748C41.0452 25.4056 41.0944 25.6531 41.0944 25.903Z" fill="white"/>
<path d="M22.8006 25.903C22.8006 26.2794 22.6891 26.6473 22.4803 26.9602C22.2715 27.2732 21.9747 27.5171 21.6275 27.6611C21.2802 27.8052 20.8981 27.8429 20.5295 27.7694C20.1609 27.696 19.8223 27.5148 19.5566 27.2486C19.2908 26.9825 19.1098 26.6434 19.0365 26.2743C18.9632 25.9051 19.0008 25.5225 19.1446 25.1748C19.2885 24.827 19.5321 24.5298 19.8446 24.3207C20.1571 24.1116 20.5244 24 20.9002 24C21.1498 24 21.3969 24.0492 21.6275 24.1449C21.858 24.2405 22.0675 24.3807 22.244 24.5574C22.4204 24.7341 22.5604 24.9439 22.6559 25.1748C22.7514 25.4056 22.8006 25.6531 22.8006 25.903Z" fill="white"/>
<path d="M59.3884 41.153C59.3884 41.5296 59.2768 41.8977 59.0678 42.2108C58.8587 42.5238 58.5617 42.7677 58.2142 42.9116C57.8667 43.0555 57.4844 43.0929 57.1156 43.0191C56.7469 42.9452 56.4083 42.7635 56.1427 42.4969C55.8772 42.2302 55.6966 41.8907 55.6238 41.5212C55.551 41.1518 55.5894 40.769 55.734 40.4213C55.8785 40.0737 56.1229 39.7768 56.436 39.5683C56.7492 39.3598 57.117 39.249 57.4931 39.25C57.7424 39.25 57.9892 39.2993 58.2195 39.395C58.4498 39.4907 58.6589 39.6309 58.835 39.8077C59.011 39.9845 59.1506 40.1943 59.2455 40.4251C59.3405 40.656 59.389 40.9033 59.3884 41.153Z" fill="white"/>
<path d="M77.6873 41.153C77.6873 41.5294 77.5759 41.8973 77.3671 42.2102C77.1583 42.5232 76.8614 42.7671 76.5142 42.9111C76.167 43.0552 75.7849 43.0928 75.4163 43.0194C75.0477 42.946 74.7091 42.7648 74.4433 42.4986C74.1775 42.2325 73.9966 41.8934 73.9232 41.5243C73.8499 41.1551 73.8875 40.7725 74.0314 40.4248C74.1752 40.077 74.4188 39.7798 74.7313 39.5707C75.0438 39.3616 75.4112 39.25 75.787 39.25C76.291 39.25 76.7743 39.4505 77.1307 39.8074C77.4871 40.1643 77.6873 40.6483 77.6873 41.153Z" fill="white"/>
<path d="M41.0944 41.153C41.0944 41.5294 40.983 41.8973 40.7742 42.2102C40.5653 42.5232 40.2686 42.7671 39.9214 42.9111C39.5741 43.0552 39.192 43.0928 38.8234 43.0194C38.4548 42.946 38.1163 42.7648 37.8505 42.4986C37.5848 42.2325 37.4038 41.8934 37.3305 41.5243C37.2571 41.1551 37.2947 40.7725 37.4386 40.4248C37.5824 40.077 37.8259 39.7798 38.1384 39.5707C38.4509 39.3616 38.8183 39.25 39.1942 39.25C39.6981 39.25 40.1815 39.4505 40.5379 39.8074C40.8942 40.1643 41.0944 40.6483 41.0944 41.153Z" fill="white"/>
<path d="M22.8006 41.153C22.8006 41.5294 22.6891 41.8973 22.4803 42.2102C22.2715 42.5232 21.9747 42.7671 21.6275 42.9111C21.2802 43.0552 20.8981 43.0928 20.5295 43.0194C20.1609 42.946 19.8223 42.7648 19.5566 42.4986C19.2908 42.2325 19.1098 41.8934 19.0365 41.5243C18.9632 41.1551 19.0008 40.7725 19.1446 40.4248C19.2885 40.077 19.5321 39.7798 19.8446 39.5707C20.1571 39.3616 20.5244 39.25 20.9002 39.25C21.4042 39.25 21.8876 39.4505 22.244 39.8074C22.6003 40.1643 22.8006 40.6483 22.8006 41.153Z" fill="white"/>
<path d="M59.3884 56.4108C59.3884 56.7874 59.2768 57.1555 59.0678 57.4686C58.8587 57.7816 58.5617 58.0255 58.2142 58.1694C57.8667 58.3133 57.4844 58.3507 57.1156 58.2769C56.7469 58.203 56.4083 58.0213 56.1427 57.7547C55.8772 57.4881 55.6966 57.1485 55.6238 56.779C55.551 56.4096 55.5894 56.0268 55.734 55.6791C55.8785 55.3315 56.1229 55.0346 56.436 54.8261C56.7492 54.6176 57.117 54.5068 57.4931 54.5078C57.7424 54.5078 57.9892 54.5571 58.2195 54.6528C58.4498 54.7485 58.6589 54.8887 58.835 55.0655C59.011 55.2423 59.1506 55.4521 59.2455 55.6829C59.3405 55.9138 59.389 56.1611 59.3884 56.4108Z" fill="white"/>
<path d="M77.6873 56.4108C77.6873 56.7872 77.5759 57.1551 77.3671 57.468C77.1583 57.781 76.8614 58.0249 76.5142 58.1689C76.167 58.313 75.7849 58.3507 75.4163 58.2772C75.0477 58.2038 74.7091 58.0226 74.4433 57.7564C74.1775 57.4903 73.9966 57.1512 73.9232 56.7821C73.8499 56.4129 73.8875 56.0303 74.0314 55.6825C74.1752 55.3348 74.4188 55.0376 74.7313 54.8285C75.0438 54.6194 75.4112 54.5078 75.787 54.5078C76.291 54.5078 76.7743 54.7083 77.1307 55.0652C77.4871 55.4221 77.6873 55.9061 77.6873 56.4108Z" fill="white"/>
<path d="M41.0944 56.4108C41.0944 56.7872 40.983 57.1551 40.7742 57.468C40.5653 57.781 40.2686 58.0249 39.9214 58.1689C39.5741 58.313 39.192 58.3507 38.8234 58.2772C38.4548 58.2038 38.1163 58.0226 37.8505 57.7564C37.5848 57.4903 37.4038 57.1512 37.3305 56.7821C37.2571 56.4129 37.2947 56.0303 37.4386 55.6825C37.5824 55.3348 37.8259 55.0376 38.1384 54.8285C38.4509 54.6194 38.8183 54.5078 39.1942 54.5078C39.6981 54.5078 40.1815 54.7083 40.5379 55.0652C40.8942 55.4221 41.0944 55.9061 41.0944 56.4108Z" fill="white"/>
<path d="M22.8006 56.4108C22.8006 56.7872 22.6891 57.1551 22.4803 57.468C22.2715 57.781 21.9747 58.0249 21.6275 58.1689C21.2802 58.313 20.8981 58.3507 20.5295 58.2772C20.1609 58.2038 19.8223 58.0226 19.5566 57.7564C19.2908 57.4903 19.1098 57.1512 19.0365 56.7821C18.9632 56.4129 19.0008 56.0303 19.1446 55.6825C19.2885 55.3348 19.5321 55.0376 19.8446 54.8285C20.1571 54.6194 20.5244 54.5078 20.9002 54.5078C21.4042 54.5078 21.8876 54.7083 22.244 55.0652C22.6003 55.4221 22.8006 55.9061 22.8006 56.4108Z" fill="white"/>
<path d="M59.3885 71.6637C59.3895 72.0405 59.2788 72.4091 59.0703 72.7228C58.8619 73.0365 58.5652 73.2812 58.2177 73.4258C57.8703 73.5705 57.4878 73.6086 57.1187 73.5353C56.7496 73.462 56.4105 73.2807 56.1445 73.0142C55.8784 72.7478 55.6973 72.4083 55.6242 72.0387C55.551 71.6691 55.5891 71.286 55.7335 70.9381C55.878 70.5902 56.1223 70.293 56.4355 70.0843C56.7488 69.8756 57.1169 69.7647 57.4932 69.7656C57.9958 69.7656 58.4779 69.9656 58.8334 70.3216C59.1888 70.6775 59.3885 71.1603 59.3885 71.6637Z" fill="white"/>
<path d="M77.6873 71.6637C77.6883 72.0403 77.5776 72.4087 77.3694 72.7223C77.1612 73.0359 76.8648 73.2806 76.5176 73.4253C76.1705 73.5701 75.7882 73.6085 75.4193 73.5357C75.0504 73.4628 74.7113 73.2819 74.445 73.016C74.1788 72.7501 73.9973 72.411 73.9236 72.0417C73.8499 71.6724 73.8872 71.2895 74.0309 70.9415C74.1746 70.5935 74.4181 70.296 74.7307 70.0867C75.0433 69.8774 75.411 69.7656 75.787 69.7656C76.2902 69.7656 76.7727 69.9654 77.129 70.3213C77.4852 70.6771 77.686 71.1598 77.6873 71.6637Z" fill="white"/>
<path d="M41.0945 71.6637C41.0955 72.0403 40.9849 72.4087 40.7767 72.7223C40.5684 73.0359 40.272 73.2806 39.9249 73.4253C39.5777 73.5701 39.1955 73.6085 38.8266 73.5357C38.4576 73.4628 38.1185 73.2819 37.8523 73.016C37.586 72.7501 37.4046 72.411 37.3308 72.0417C37.2571 71.6724 37.2944 71.2895 37.4381 70.9415C37.5818 70.5935 37.8254 70.296 38.138 70.0867C38.4506 69.8774 38.8182 69.7656 39.1942 69.7656C39.6974 69.7656 40.18 69.9654 40.5362 70.3213C40.8925 70.6771 41.0932 71.1598 41.0945 71.6637Z" fill="white"/>
<path d="M22.8005 71.6637C22.8015 72.0403 22.6908 72.4087 22.4826 72.7223C22.2744 73.0359 21.978 73.2806 21.6309 73.4253C21.2837 73.5701 20.9015 73.6085 20.5326 73.5357C20.1636 73.4628 19.8246 73.2819 19.5583 73.016C19.2921 72.7501 19.1106 72.411 19.0369 72.0417C18.9631 71.6724 19.0005 71.2895 19.1442 70.9415C19.2879 70.5935 19.5314 70.296 19.844 70.0867C20.1566 69.8774 20.5242 69.7656 20.9002 69.7656C21.4033 69.7656 21.886 69.9654 22.2422 70.3213C22.5984 70.6771 22.7992 71.1598 22.8005 71.6637Z" fill="white"/>
</g>
<path d="M147.162 402.728V355.345H134.586L133.142 385.384C133.028 388.26 132.745 390.771 132.291 392.914C131.837 395.058 131.357 396.863 130.847 398.329C130.224 400.021 129.572 401.488 128.893 402.728H147.162ZM124.22 408.651C123.768 413.729 122.918 417.958 121.673 421.344H117V402.728H121.248C121.928 401.488 122.579 400.021 123.202 398.329C123.712 396.863 124.194 395.058 124.646 392.914C125.1 390.769 125.383 388.26 125.497 385.384L127.196 349.422H154.81V402.728H160.333V421.344H155.66C154.358 417.96 153.507 413.729 153.111 408.651H124.222H124.22ZM196.016 390.036H173.925C173.925 392.799 174.152 395.098 174.606 396.932C175.059 398.765 175.754 400.233 176.688 401.332C177.624 402.433 178.841 403.222 180.342 403.702C181.844 404.18 183.671 404.42 185.822 404.42H194.319V407.804C193.016 408.255 191.415 408.651 189.519 408.989C187.621 409.328 185.822 409.496 184.123 409.496C180.952 409.496 178.233 409.143 175.967 408.439C173.7 407.733 171.846 406.535 170.401 404.843C168.957 403.151 167.91 400.895 167.258 398.075C166.607 395.254 166.282 391.728 166.282 387.498C166.282 383.268 166.593 379.741 167.216 376.92C167.84 374.1 168.774 371.844 170.019 370.152C171.266 368.46 172.823 367.26 174.692 366.556C176.56 365.852 178.713 365.499 181.149 365.499C183.585 365.499 185.736 365.852 187.607 366.556C189.477 367.262 191.034 368.46 192.279 370.152C193.526 371.844 194.46 374.1 195.082 376.92C195.705 379.741 196.018 383.268 196.018 387.498V390.036H196.016ZM188.37 384.96C188.37 382.082 188.171 379.699 187.776 377.809C187.38 375.92 186.856 374.411 186.204 373.282C185.553 372.154 184.788 371.35 183.91 370.87C183.032 370.392 182.111 370.152 181.149 370.152C180.185 370.152 179.265 370.392 178.387 370.87C177.508 371.35 176.744 372.154 176.092 373.282C175.441 374.411 174.917 375.92 174.521 377.809C174.124 379.699 173.925 382.082 173.925 384.96H188.37ZM233.486 366.344V408.651H225.839V371.844H214.794L213.436 395.113C213.153 400.191 212.091 403.857 210.249 406.112C208.409 408.37 206.212 409.496 203.664 409.496C202.362 409.496 201.272 409.356 200.392 409.074C199.514 408.792 199.047 408.651 198.99 408.651V405.267C200.689 405.267 202.191 404.478 203.493 402.899C204.796 401.32 205.561 398.724 205.788 395.113L207.487 366.344H233.487H233.486ZM258.55 409.498C255.775 409.498 253.565 408.61 251.922 406.832C250.278 405.055 249.091 402.56 248.352 399.344L240.706 366.344H248.352L255.999 399.344C256.395 401.036 256.905 402.234 257.529 402.941C258.152 403.647 258.831 403.998 259.568 403.998L266.621 366.344H274.267L266.195 409.498C265.062 415.421 263.392 419.723 261.182 422.403C258.973 425.081 255.969 426.422 252.175 426.422C250.872 426.422 249.542 426.251 248.181 425.914C246.823 425.575 245.604 425.18 244.528 424.73V421.346H250.476C251.551 421.346 252.486 421.191 253.28 420.88C254.073 420.57 254.794 419.977 255.447 419.103C256.098 418.228 256.664 417.016 257.146 415.465C257.628 413.913 258.094 411.924 258.548 409.498H258.55ZM317.174 404.42C319.722 404.42 321.706 403.899 323.122 402.855C324.538 401.812 325.247 399.795 325.247 396.805C325.247 393.816 324.538 391.799 323.122 390.756C321.706 389.712 319.724 389.19 317.174 389.19H311.227V404.42H317.174ZM311.227 370.575V384.113H316.326C318.479 384.113 320.22 383.619 321.55 382.631C322.881 381.643 323.546 379.882 323.546 377.343C323.546 374.804 322.881 373.042 321.55 372.055C320.22 371.067 318.477 370.575 316.326 370.575H311.227ZM303.58 367.191C305.733 366.57 307.857 366.133 309.952 365.88C312.049 365.626 314.173 365.499 316.326 365.499C318.762 365.499 320.913 365.681 322.783 366.048C324.653 366.415 326.211 367.05 327.456 367.952C328.703 368.855 329.637 370.069 330.26 371.59C330.882 373.114 331.194 375.032 331.194 377.345C331.194 378.697 331.023 379.87 330.685 380.856C330.346 381.843 329.892 382.675 329.326 383.353C328.76 384.031 328.123 384.58 327.414 385.003C326.705 385.426 325.984 385.779 325.247 386.06V386.399C326.211 386.681 327.145 387.078 328.05 387.584C328.956 388.091 329.778 388.768 330.513 389.613C331.25 390.46 331.83 391.475 332.254 392.66C332.679 393.844 332.892 395.226 332.892 396.807C332.892 399.346 332.565 401.433 331.914 403.067C331.263 404.704 330.286 406.001 328.984 406.959C327.681 407.919 326.052 408.582 324.098 408.949C322.144 409.316 319.836 409.498 317.174 409.498C314.625 409.498 312.261 409.371 310.08 409.117C307.899 408.863 305.733 408.427 303.58 407.806V367.191ZM349.035 368.883C350.111 367.812 351.443 366.979 353.029 366.386C354.616 365.794 356.257 365.497 357.956 365.497C360.167 365.497 362.149 365.85 363.904 366.554C365.66 367.26 367.132 368.458 368.322 370.15C369.511 371.842 370.419 374.098 371.04 376.919C371.664 379.739 371.975 383.266 371.975 387.497C371.975 391.728 371.664 395.253 371.04 398.073C370.419 400.894 369.511 403.149 368.322 404.841C367.132 406.533 365.66 407.733 363.904 408.437C362.147 409.142 360.165 409.495 357.956 409.495C356.257 409.495 354.742 409.296 353.411 408.903C352.08 408.509 350.762 408.001 349.459 407.38V425.573H341.813V366.342H348.185L348.609 368.881H349.033L349.035 368.883ZM349.459 402.728C350.083 403.18 350.961 403.575 352.093 403.913C353.226 404.252 354.331 404.42 355.407 404.42C356.765 404.42 357.998 404.18 359.102 403.702C360.207 403.222 361.141 402.349 361.904 401.08C362.669 399.81 363.265 398.077 363.689 395.877C364.113 393.677 364.326 390.884 364.326 387.5C364.326 384.116 364.115 381.337 363.689 379.165C363.265 376.993 362.669 375.273 361.904 374.004C361.14 372.735 360.205 371.846 359.102 371.338C357.998 370.83 356.765 370.576 355.407 370.576C354.331 370.576 353.226 370.745 352.093 371.084C350.959 371.423 350.083 371.818 349.459 372.269V402.728ZM409.36 390.036H387.269C387.269 392.799 387.496 395.098 387.95 396.932C388.403 398.765 389.098 400.233 390.032 401.332C390.968 402.433 392.185 403.222 393.687 403.702C395.188 404.18 397.015 404.42 399.166 404.42H407.663V407.804C406.36 408.255 404.759 408.651 402.863 408.989C400.965 409.328 399.166 409.496 397.467 409.496C394.296 409.496 391.577 409.143 389.311 408.439C387.044 407.733 385.19 406.535 383.746 404.843C382.301 403.151 381.254 400.895 380.602 398.075C379.951 395.254 379.626 391.728 379.626 387.498C379.626 383.268 379.937 379.741 380.561 376.92C381.184 374.1 382.118 371.844 383.363 370.152C384.61 368.46 386.167 367.26 388.036 366.556C389.904 365.852 392.057 365.499 394.493 365.499C396.929 365.499 399.08 365.852 400.951 366.556C402.821 367.262 404.378 368.46 405.623 370.152C406.87 371.844 407.804 374.1 408.426 376.92C409.049 379.741 409.362 383.268 409.362 387.498V390.036H409.36ZM401.714 384.96C401.714 382.082 401.515 379.699 401.12 377.809C400.724 375.92 400.2 374.411 399.548 373.282C398.897 372.154 398.132 371.35 397.254 370.87C396.376 370.392 395.455 370.152 394.493 370.152C393.529 370.152 392.609 370.392 391.731 370.87C390.852 371.35 390.088 372.154 389.436 373.282C388.785 374.411 388.261 375.92 387.865 377.809C387.468 379.699 387.269 382.082 387.269 384.96H401.714ZM440.117 392.997L450.144 366.344H459.065L462.039 408.651H454.817L452.691 378.612H452.267L443.346 402.304H436.548L427.627 378.612H427.203L425.078 408.651H417.855L420.829 366.344H429.75L439.777 392.997H440.116H440.117ZM485.404 370.575C482.855 370.575 480.873 371.124 479.457 372.223C478.041 373.324 477.332 375.454 477.332 378.612C477.332 381.772 478.041 383.9 479.457 385.001C480.873 386.1 482.855 386.652 485.404 386.652H491.352V370.575H485.404ZM479.967 390.289C478.551 390.232 477.22 389.909 475.973 389.317C474.728 388.724 473.637 387.921 472.703 386.905C471.768 385.89 471.032 384.678 470.494 383.268C469.956 381.857 469.687 380.306 469.687 378.614C469.687 375.964 470.04 373.792 470.749 372.098C471.458 370.406 472.49 369.067 473.85 368.079C475.208 367.092 476.866 366.415 478.821 366.048C480.775 365.681 482.97 365.499 485.406 365.499C487.954 365.499 490.32 365.626 492.501 365.88C494.682 366.133 496.847 366.57 499 367.191V408.651H491.354V392.152H488.465C485.802 392.152 483.934 393.562 482.857 396.383L480.732 402.306C479.825 404.787 478.778 406.608 477.588 407.764C476.399 408.921 474.615 409.498 472.236 409.498C471.159 409.498 470.111 409.357 469.092 409.076C468.526 408.963 468.016 408.822 467.562 408.653V405.269C469.261 405.269 470.464 404.987 471.173 404.422C471.882 403.859 472.378 403.153 472.661 402.306L474.784 396.383C475.465 394.465 476.214 393.112 477.037 392.322C477.857 391.531 478.833 390.968 479.967 390.63V390.291V390.289Z" fill="white"/>
<defs>
<clipPath id="clip0_2113_20539">
<rect width="67" height="50" fill="white" transform="translate(19 24)"/>
</clipPath>
</defs>
</svg>
