<svg width="334" height="44" viewBox="0 0 334 44" fill="none" xmlns="http://www.w3.org/2000/svg">
<path fill-rule="evenodd" clip-rule="evenodd" d="M30.7536 12.7987C30.9619 12.6607 31.2425 12.7162 31.3825 12.9231V12.9231C31.5237 13.1318 31.4687 13.4154 31.2598 13.5562L20.5874 20.7494C20.3559 20.9054 20.0417 20.8445 19.8853 20.6132V20.6132C19.7277 20.3801 19.7904 20.0633 20.025 19.9078L30.7536 12.7987Z" fill="#E31E24"/>
<path fill-rule="evenodd" clip-rule="evenodd" d="M8.10988 16.5409C7.78635 16.4325 7.61211 16.0822 7.7208 15.7588V15.7588C7.82938 15.4357 8.17921 15.2617 8.50238 15.37L20.4486 19.3744C20.772 19.4828 20.9462 19.8329 20.8377 20.1562V20.1562C20.7293 20.4794 20.3794 20.6535 20.0562 20.5452L8.10988 16.5409Z" fill="#1D222A"/>
<path fill-rule="evenodd" clip-rule="evenodd" d="M15.7436 40.03C17.1481 41.1358 18.552 42.2411 19.9565 43.3464C21.361 42.2411 22.7655 41.1358 24.1693 40.03C23.1073 33.5147 22.0459 27.0001 20.9839 20.4849C20.6414 20.2874 20.299 20.0912 19.9559 19.8938C19.6128 20.0918 19.2703 20.2898 18.9272 20.4879C17.8658 27.0019 16.8044 33.5159 15.743 40.0294L15.7436 40.03Z" fill="url(#paint0_linear_2142_2241)"/>
<path fill-rule="evenodd" clip-rule="evenodd" d="M17.2722 19.8198C16.9735 19.1579 17.4575 18.4083 18.1837 18.4083H21.7423C22.465 18.4083 22.9491 19.1514 22.657 19.8125L21.3553 22.7585C20.6818 22.5332 19.1961 22.4599 18.5693 22.6931L17.2722 19.8198Z" fill="url(#paint1_linear_2142_2241)"/>
<path fill-rule="evenodd" clip-rule="evenodd" d="M19.1725 2.36839C19.1725 2.02725 19.4491 1.7507 19.7902 1.7507V1.7507C20.1313 1.7507 20.4079 2.02725 20.4079 2.36839V4.05816C20.4079 4.39929 20.1313 4.67584 19.7902 4.67584V4.67584C19.4491 4.67584 19.1725 4.39929 19.1725 4.05816V2.36839Z" fill="#1D222A"/>
<path fill-rule="evenodd" clip-rule="evenodd" d="M37.8656 19.809C38.2064 19.809 38.4827 20.0853 38.4827 20.4261V20.4261C38.4827 20.7669 38.2064 21.0432 37.8656 21.0432H36.172C35.8312 21.0432 35.5549 20.7669 35.5549 20.4261V20.4261C35.5549 20.0853 35.8312 19.809 36.172 19.809H37.8656Z" fill="#1D222A"/>
<path fill-rule="evenodd" clip-rule="evenodd" d="M1.71477 21.0432C1.37395 21.0432 1.09765 20.7669 1.09765 20.4261V20.4261C1.09765 20.0853 1.37394 19.809 1.71477 19.809H3.40831C3.74914 19.809 4.02544 20.0853 4.02544 20.4261V20.4261C4.02544 20.7669 3.74914 21.0432 3.40831 21.0432H1.71477Z" fill="#1D222A"/>
<path d="M19.7895 0.653687C25.2541 0.653687 30.2029 2.86722 33.7829 6.44461C37.3642 10.022 39.5797 14.9663 39.5797 20.4259C39.5797 25.885 37.3642 30.8299 33.7841 34.4066C31.5904 36.599 28.8833 38.2778 25.8591 39.2498L25.3542 37.1065C27.9746 36.2344 30.3223 34.7627 32.2311 32.8556C35.4147 29.6749 37.3842 25.28 37.3842 20.4259C37.3842 15.5719 35.4141 11.1769 32.2305 7.99621C29.0469 4.81489 24.648 2.84724 19.7895 2.84724C14.9317 2.84724 10.5328 4.81489 7.34917 7.99621C4.16498 11.1769 2.19554 15.5719 2.19554 20.4259C2.19554 25.28 4.16498 29.6743 7.34857 32.8556C9.33316 34.8378 11.7893 36.3489 14.5347 37.2064L14.031 39.3479C10.8819 38.3922 8.06384 36.6741 5.79617 34.4072C2.21554 30.8299 0 25.8856 0 20.4265C0 14.9669 2.21554 10.0226 5.79678 6.44522C9.37741 2.86722 14.3249 0.654292 19.7895 0.654292V0.653687Z" fill="#1D222A"/>
<path d="M62.05 27.1565V10.6546H57.6844L57.1831 21.1161C57.1437 22.1178 57.0455 22.9923 56.8879 23.7384C56.7303 24.4851 56.5636 25.1138 56.3866 25.6243C56.1702 26.2136 55.9441 26.7247 55.7083 27.1565H62.05ZM54.0862 29.2193C53.9292 30.9877 53.634 32.4605 53.2018 33.6397H51.5797V27.1565H53.0545C53.2903 26.7247 53.5164 26.2136 53.7328 25.6243C53.9098 25.1138 54.0771 24.4851 54.2341 23.7384C54.3917 22.9917 54.4899 22.1178 54.5293 21.1161L55.1191 8.59189H64.705V27.1565H66.6223V33.6397H65.0002C64.548 32.4611 64.2528 30.9877 64.1152 29.2193H54.0868H54.0862ZM79.0094 22.7361H71.3407C71.3407 23.6984 71.4195 24.4991 71.5772 25.138C71.7342 25.7763 71.9754 26.2875 72.2997 26.6702C72.6246 27.0536 73.0471 27.3285 73.5684 27.4957C74.0897 27.6622 74.7238 27.7458 75.4706 27.7458H78.4202V28.9243C77.968 29.0812 77.4121 29.2193 76.7538 29.3368C76.0949 29.4549 75.4706 29.5136 74.8808 29.5136C73.78 29.5136 72.8362 29.3907 72.0494 29.1454C71.2626 28.8995 70.6188 28.4822 70.1175 27.893C69.6162 27.3037 69.2525 26.5182 69.0264 25.5359C68.8003 24.5536 68.6876 23.3254 68.6876 21.8525C68.6876 20.379 68.7955 19.1509 69.0119 18.1685C69.2283 17.1862 69.5526 16.4007 69.9848 15.8115C70.4176 15.2222 70.9583 14.8043 71.6069 14.5591C72.2555 14.3138 73.0029 14.1908 73.8485 14.1908C74.6941 14.1908 75.4409 14.3138 76.0901 14.5591C76.7393 14.8049 77.28 15.2222 77.7122 15.8115C78.145 16.4007 78.4693 17.1862 78.6851 18.1685C78.9015 19.1509 79.01 20.379 79.01 21.8525V22.7361H79.0094ZM76.355 20.9683C76.355 19.966 76.2859 19.1363 76.1489 18.478C76.0113 17.8203 75.8294 17.2946 75.6033 16.9016C75.3772 16.5085 75.1117 16.2287 74.8068 16.0616C74.5019 15.895 74.1825 15.8115 73.8485 15.8115C73.5139 15.8115 73.1944 15.895 72.8895 16.0616C72.5846 16.2287 72.3191 16.5085 72.093 16.9016C71.8669 17.2946 71.6851 17.8203 71.5475 18.478C71.4099 19.1363 71.3407 19.966 71.3407 20.9683H76.355V20.9683ZM92.0165 14.4852V29.2193H89.3621V16.4007H85.5281L85.0565 24.5045C84.9583 26.2729 84.5897 27.5496 83.9502 28.3351C83.3113 29.1212 82.5488 29.5136 81.6644 29.5136C81.2122 29.5136 80.8339 29.4645 80.5284 29.3664C80.2235 29.2683 80.0617 29.2193 80.0417 29.2193V28.0407C80.6315 28.0407 81.1528 27.7658 81.605 27.2159C82.0572 26.666 82.3227 25.7618 82.4015 24.5045L82.9913 14.4852H92.0171H92.0165ZM100.717 29.5142C99.7542 29.5142 98.9868 29.2047 98.4164 28.5858C97.846 27.9668 97.4338 27.0978 97.1774 25.978L94.523 14.4852H97.1774L99.8318 25.978C99.9694 26.5673 100.146 26.9845 100.363 27.2304C100.579 27.4763 100.815 27.5986 101.071 27.5986L103.519 14.4852H106.174L103.371 29.5142C102.978 31.5769 102.398 33.0752 101.631 34.0085C100.864 34.9412 99.8215 35.4081 98.5043 35.4081C98.0521 35.4081 97.5902 35.3487 97.118 35.2312C96.6464 35.1132 96.2233 34.9757 95.8499 34.8188V33.6403H97.9145C98.2879 33.6403 98.6122 33.5864 98.888 33.478C99.1632 33.3702 99.4136 33.1637 99.6403 32.859C99.8664 32.5544 100.063 32.1323 100.23 31.5921C100.397 31.0519 100.559 30.359 100.717 29.5142H100.717ZM121.068 27.7458C121.953 27.7458 122.641 27.5641 123.133 27.2007C123.624 26.8374 123.871 26.1349 123.871 25.0938C123.871 24.0527 123.624 23.3502 123.133 22.9868C122.641 22.6235 121.953 22.4418 121.068 22.4418H119.004V27.7458H121.068V27.7458ZM119.004 15.9586V20.6734H120.774C121.521 20.6734 122.125 20.5014 122.587 20.1574C123.049 19.8134 123.28 19.1999 123.28 18.3157C123.28 17.4315 123.049 16.818 122.587 16.474C122.125 16.13 121.52 15.9586 120.774 15.9586H119.004V15.9586ZM116.349 14.7801C117.097 14.5639 117.834 14.4119 118.561 14.3235C119.289 14.235 120.026 14.1908 120.774 14.1908C121.619 14.1908 122.366 14.2544 123.015 14.3822C123.665 14.51 124.205 14.731 124.637 15.0454C125.07 15.3597 125.395 15.7824 125.611 16.3123C125.827 16.8428 125.935 17.5108 125.935 18.3163C125.935 18.7875 125.876 19.1957 125.758 19.5391C125.641 19.883 125.483 20.1725 125.287 20.4087C125.09 20.6449 124.869 20.8363 124.623 20.9835C124.377 21.1306 124.126 21.2536 123.871 21.3517V21.4698C124.205 21.5679 124.529 21.706 124.843 21.8822C125.158 22.059 125.444 22.2946 125.699 22.589C125.955 22.8839 126.156 23.2376 126.303 23.65C126.45 24.0624 126.524 24.5439 126.524 25.0944C126.524 25.9786 126.411 26.7053 126.185 27.2746C125.959 27.8445 125.62 28.2963 125.168 28.63C124.716 28.9643 124.15 29.195 123.472 29.3228C122.793 29.4506 121.992 29.5142 121.068 29.5142C120.183 29.5142 119.363 29.47 118.605 29.3816C117.848 29.2932 117.097 29.1411 116.349 28.9249V14.7801V14.7801ZM132.128 15.3694C132.502 14.9963 132.964 14.7062 133.515 14.4997C134.066 14.2938 134.636 14.1902 135.225 14.1902C135.993 14.1902 136.681 14.3132 137.29 14.5584C137.9 14.8043 138.411 15.2216 138.824 15.8109C139.236 16.4001 139.552 17.1856 139.767 18.1679C139.984 19.1502 140.092 20.3784 140.092 21.8519C140.092 23.3254 139.984 24.553 139.767 25.5353C139.552 26.5176 139.236 27.3031 138.824 27.8924C138.411 28.4816 137.9 28.8995 137.29 29.1448C136.68 29.3901 135.992 29.513 135.225 29.513C134.636 29.513 134.109 29.444 133.647 29.3071C133.186 29.1696 132.728 28.9928 132.276 28.7766V35.1125H129.621V14.4846H131.833L131.981 15.3688H132.128L132.128 15.3694ZM132.276 27.1565C132.492 27.314 132.797 27.4515 133.19 27.569C133.583 27.6871 133.967 27.7458 134.34 27.7458C134.812 27.7458 135.24 27.6622 135.623 27.4957C136.007 27.3285 136.331 27.0245 136.596 26.5824C136.861 26.1403 137.068 25.5365 137.215 24.7704C137.363 24.0043 137.437 23.0317 137.437 21.8531C137.437 20.6746 137.363 19.7068 137.215 18.9504C137.068 18.194 136.861 17.595 136.596 17.1529C136.33 16.7108 136.006 16.4013 135.623 16.2245C135.24 16.0477 134.812 15.9592 134.34 15.9592C133.967 15.9592 133.583 16.018 133.19 16.1361C132.796 16.2542 132.492 16.3917 132.276 16.5485V27.1565V27.1565ZM153.07 22.7361H145.401C145.401 23.6984 145.48 24.4991 145.637 25.138C145.794 25.7763 146.036 26.2875 146.36 26.6702C146.685 27.0536 147.107 27.3285 147.629 27.4957C148.15 27.6622 148.784 27.7458 149.531 27.7458H152.48V28.9243C152.028 29.0812 151.472 29.2193 150.814 29.3368C150.155 29.4549 149.531 29.5136 148.941 29.5136C147.84 29.5136 146.896 29.3907 146.11 29.1454C145.323 28.8995 144.679 28.4822 144.178 27.893C143.677 27.3037 143.313 26.5182 143.087 25.5359C142.861 24.5536 142.748 23.3254 142.748 21.8525C142.748 20.379 142.856 19.1509 143.072 18.1685C143.289 17.1862 143.613 16.4007 144.045 15.8115C144.478 15.2222 145.019 14.8043 145.667 14.5591C146.316 14.3138 147.063 14.1908 147.909 14.1908C148.754 14.1908 149.501 14.3138 150.15 14.5591C150.8 14.8049 151.34 15.2222 151.772 15.8115C152.205 16.4007 152.53 17.1862 152.745 18.1685C152.962 19.1509 153.07 20.379 153.07 21.8525V22.7361H153.07ZM150.415 20.9683C150.415 19.966 150.346 19.1363 150.209 18.478C150.072 17.8203 149.89 17.2946 149.664 16.9016C149.438 16.5085 149.172 16.2287 148.867 16.0616C148.562 15.895 148.243 15.8115 147.909 15.8115C147.574 15.8115 147.255 15.895 146.95 16.0616C146.645 16.2287 146.379 16.5085 146.153 16.9016C145.927 17.2946 145.745 17.8203 145.608 18.478C145.47 19.1363 145.401 19.966 145.401 20.9683H150.415ZM163.747 23.7675L167.227 14.4852H170.324L171.357 29.2193H168.849L168.112 18.7578H167.964L164.868 27.0088H162.508L159.411 18.7578H159.263L158.526 29.2193H156.019L157.051 14.4852H160.148L163.629 23.7675H163.746H163.747ZM179.468 15.9586C178.583 15.9586 177.895 16.15 177.403 16.5328C176.911 16.9161 176.665 17.658 176.665 18.7578C176.665 19.8582 176.911 20.5995 177.403 20.9829C177.895 21.3656 178.583 21.5576 179.468 21.5576H181.532V15.9586H179.468V15.9586ZM177.58 22.8245C177.088 22.8046 176.627 22.6919 176.194 22.486C175.762 22.2795 175.383 21.9997 175.058 21.646C174.734 21.2923 174.478 20.8702 174.292 20.3791C174.105 19.8879 174.012 19.3477 174.012 18.7584C174.012 17.8355 174.134 17.079 174.38 16.4892C174.626 15.8999 174.984 15.4336 175.457 15.0896C175.928 14.7456 176.503 14.51 177.182 14.3822C177.861 14.2544 178.623 14.1908 179.468 14.1908C180.353 14.1908 181.174 14.235 181.931 14.3235C182.688 14.4119 183.44 14.5639 184.187 14.7801V29.2193H181.533V23.4732H180.53C179.606 23.4732 178.957 23.9643 178.583 24.9466L177.846 27.0094C177.531 27.8736 177.167 28.5077 176.754 28.9104C176.342 29.3131 175.722 29.5142 174.897 29.5142C174.523 29.5142 174.159 29.4651 173.805 29.367C173.608 29.3277 173.431 29.2786 173.274 29.2199V28.0413C173.864 28.0413 174.281 27.9432 174.527 27.7464C174.773 27.5502 174.946 27.3043 175.044 27.0094L175.781 24.9466C176.017 24.2786 176.277 23.8075 176.563 23.5325C176.848 23.257 177.187 23.0607 177.58 22.9432V22.8251V22.8245Z" fill="#1D222A"/>
<line x1="195.687" y1="38" x2="195.687" y2="6" stroke="#1D222A"/>
<path d="M211.817 18.46C210.804 18.46 210.054 18.2233 209.567 17.75C209.081 17.27 208.837 16.5467 208.837 15.58V15.22C208.837 14.3533 209.081 13.69 209.567 13.23C210.054 12.77 210.804 12.54 211.817 12.54V12H212.757V12.54C213.771 12.54 214.521 12.77 215.007 13.23C215.494 13.69 215.737 14.3533 215.737 15.22V15.58C215.737 16.5467 215.494 17.27 215.007 17.75C214.521 18.2233 213.771 18.46 212.757 18.46V19H211.817V18.46ZM214.797 15.22C214.797 14.6 214.634 14.1367 214.307 13.83C213.987 13.5167 213.471 13.36 212.757 13.36V17.64C213.471 17.64 213.987 17.4767 214.307 17.15C214.634 16.8233 214.797 16.3 214.797 15.58V15.22ZM209.777 15.58C209.777 16.3 209.937 16.8233 210.257 17.15C210.584 17.4767 211.104 17.64 211.817 17.64V13.36C211.104 13.36 210.584 13.5167 210.257 13.83C209.937 14.1367 209.777 14.6 209.777 15.22V15.58ZM219.04 19.07C218.72 19.07 218.427 19.02 218.16 18.92C217.9 18.8133 217.677 18.66 217.49 18.46C217.31 18.2533 217.167 18.0033 217.06 17.71C216.96 17.41 216.91 17.0667 216.91 16.68V15.92C216.91 15.1733 217.094 14.6067 217.46 14.22C217.834 13.8267 218.344 13.63 218.99 13.63C219.637 13.63 220.144 13.8267 220.51 14.22C220.884 14.6067 221.07 15.18 221.07 15.94V16.61H217.79C217.797 17.2167 217.91 17.6533 218.13 17.92C218.357 18.18 218.66 18.31 219.04 18.31C219.207 18.31 219.35 18.29 219.47 18.25C219.597 18.2033 219.7 18.1433 219.78 18.07C219.867 17.9967 219.934 17.9133 219.98 17.82C220.027 17.7267 220.06 17.63 220.08 17.53H220.97C220.864 18.05 220.647 18.4367 220.32 18.69C219.994 18.9433 219.567 19.07 219.04 19.07ZM219 14.39C218.62 14.39 218.324 14.5067 218.11 14.74C217.904 14.9667 217.797 15.35 217.79 15.89H220.24C220.227 15.35 220.114 14.9667 219.9 14.74C219.694 14.5067 219.394 14.39 219 14.39ZM221.756 18.22H222.226C222.379 18.08 222.502 17.9067 222.596 17.7C222.689 17.4867 222.762 17.2467 222.816 16.98C222.869 16.7133 222.906 16.4267 222.926 16.12C222.946 15.8067 222.956 15.4833 222.956 15.15V13.7H226.396V18.22H227.046V20.25H226.196V19H222.616V20.25H221.756V18.22ZM225.506 18.22V14.47H223.786V15.18C223.786 15.8267 223.749 16.4 223.676 16.9C223.602 17.3933 223.449 17.8333 223.216 18.22H225.506ZM230.134 19.07C229.814 19.07 229.521 19.02 229.254 18.92C228.994 18.8133 228.771 18.66 228.584 18.46C228.404 18.2533 228.261 18.0033 228.154 17.71C228.054 17.41 228.004 17.0667 228.004 16.68V15.92C228.004 15.1733 228.187 14.6067 228.554 14.22C228.927 13.8267 229.437 13.63 230.084 13.63C230.731 13.63 231.237 13.8267 231.604 14.22C231.977 14.6067 232.164 15.18 232.164 15.94V16.61H228.884C228.891 17.2167 229.004 17.6533 229.224 17.92C229.451 18.18 229.754 18.31 230.134 18.31C230.301 18.31 230.444 18.29 230.564 18.25C230.691 18.2033 230.794 18.1433 230.874 18.07C230.961 17.9967 231.027 17.9133 231.074 17.82C231.121 17.7267 231.154 17.63 231.174 17.53H232.064C231.957 18.05 231.741 18.4367 231.414 18.69C231.087 18.9433 230.661 19.07 230.134 19.07ZM230.094 14.39C229.714 14.39 229.417 14.5067 229.204 14.74C228.997 14.9667 228.891 15.35 228.884 15.89H231.334C231.321 15.35 231.207 14.9667 230.994 14.74C230.787 14.5067 230.487 14.39 230.094 14.39ZM233.429 13.7H234.219V14.58C234.373 14.2867 234.576 14.0567 234.829 13.89C235.089 13.7233 235.409 13.64 235.789 13.64C236.069 13.64 236.326 13.69 236.559 13.79C236.793 13.89 236.993 14.0367 237.159 14.23C237.333 14.4167 237.466 14.6533 237.559 14.94C237.659 15.2267 237.709 15.5533 237.709 15.92V16.68C237.709 17.0733 237.659 17.42 237.559 17.72C237.466 18.02 237.333 18.27 237.159 18.47C236.993 18.67 236.793 18.82 236.559 18.92C236.326 19.02 236.069 19.07 235.789 19.07C235.429 19.07 235.126 18.9867 234.879 18.82C234.633 18.6533 234.446 18.44 234.319 18.18V21H233.429V13.7ZM235.609 18.29C235.969 18.29 236.263 18.1633 236.489 17.91C236.716 17.65 236.829 17.24 236.829 16.68V15.92C236.829 15.42 236.716 15.0467 236.489 14.8C236.263 14.5467 235.969 14.42 235.609 14.42C235.209 14.42 234.893 14.5467 234.659 14.8C234.433 15.0467 234.319 15.42 234.319 15.92V16.68C234.319 17.24 234.433 17.65 234.659 17.91C234.893 18.1633 235.209 18.29 235.609 18.29ZM240.196 19.06C239.71 19.06 239.33 18.9267 239.056 18.66C238.783 18.3867 238.646 18.0067 238.646 17.52C238.646 17.0067 238.793 16.6167 239.086 16.35C239.38 16.0767 239.85 15.94 240.496 15.94H241.756V15.43C241.756 15.07 241.673 14.81 241.506 14.65C241.346 14.4833 241.096 14.4 240.756 14.4C240.583 14.4 240.436 14.42 240.316 14.46C240.196 14.4933 240.1 14.5433 240.026 14.61C239.953 14.67 239.896 14.74 239.856 14.82C239.816 14.9 239.793 14.98 239.786 15.06H238.926C238.946 14.8533 238.993 14.6633 239.066 14.49C239.14 14.3167 239.25 14.1667 239.396 14.04C239.543 13.9133 239.726 13.8133 239.946 13.74C240.173 13.6667 240.446 13.63 240.766 13.63C241.406 13.63 241.876 13.78 242.176 14.08C242.476 14.3733 242.626 14.8233 242.626 15.43V19H241.856V18.12C241.79 18.2333 241.713 18.3467 241.626 18.46C241.54 18.5733 241.43 18.6767 241.296 18.77C241.17 18.8567 241.016 18.9267 240.836 18.98C240.656 19.0333 240.443 19.06 240.196 19.06ZM240.446 18.3C240.846 18.3 241.163 18.1833 241.396 17.95C241.636 17.71 241.756 17.3867 241.756 16.98V16.66H240.536C240.156 16.66 239.89 16.73 239.736 16.87C239.59 17.0033 239.516 17.2167 239.516 17.51C239.516 17.7433 239.593 17.9333 239.746 18.08C239.9 18.2267 240.133 18.3 240.446 18.3ZM243.594 18.16C243.794 18.1333 243.961 18.0733 244.094 17.98C244.227 17.8867 244.334 17.7467 244.414 17.56C244.494 17.3667 244.551 17.1233 244.584 16.83C244.617 16.5367 244.634 16.1767 244.634 15.75V13.7H248.124V19H247.234V14.47H245.504V15.75C245.504 16.89 245.357 17.73 245.064 18.27C244.771 18.8033 244.281 19.07 243.594 19.07V18.16ZM249.621 13.7H250.511V15.72H251.711C252.411 15.72 252.918 15.8633 253.231 16.15C253.544 16.4367 253.701 16.8433 253.701 17.37C253.701 17.89 253.544 18.2933 253.231 18.58C252.918 18.86 252.411 19 251.711 19H249.621V13.7ZM251.711 18.23C252.131 18.23 252.421 18.16 252.581 18.02C252.741 17.88 252.821 17.66 252.821 17.36C252.821 17.0533 252.741 16.83 252.581 16.69C252.421 16.55 252.131 16.48 251.711 16.48H250.511V18.23H251.711ZM254.767 13.7H255.657V15.92H258.077V13.7H258.967V19H258.077V16.68H255.657V19H254.767V13.7ZM261.69 19.06C261.204 19.06 260.824 18.9267 260.55 18.66C260.277 18.3867 260.14 18.0067 260.14 17.52C260.14 17.0067 260.287 16.6167 260.58 16.35C260.874 16.0767 261.344 15.94 261.99 15.94H263.25V15.43C263.25 15.07 263.167 14.81 263 14.65C262.84 14.4833 262.59 14.4 262.25 14.4C262.077 14.4 261.93 14.42 261.81 14.46C261.69 14.4933 261.594 14.5433 261.52 14.61C261.447 14.67 261.39 14.74 261.35 14.82C261.31 14.9 261.287 14.98 261.28 15.06H260.42C260.44 14.8533 260.487 14.6633 260.56 14.49C260.634 14.3167 260.744 14.1667 260.89 14.04C261.037 13.9133 261.22 13.8133 261.44 13.74C261.667 13.6667 261.94 13.63 262.26 13.63C262.9 13.63 263.37 13.78 263.67 14.08C263.97 14.3733 264.12 14.8233 264.12 15.43V19H263.35V18.12C263.284 18.2333 263.207 18.3467 263.12 18.46C263.034 18.5733 262.924 18.6767 262.79 18.77C262.664 18.8567 262.51 18.9267 262.33 18.98C262.15 19.0333 261.937 19.06 261.69 19.06ZM261.94 18.3C262.34 18.3 262.657 18.1833 262.89 17.95C263.13 17.71 263.25 17.3867 263.25 16.98V16.66H262.03C261.65 16.66 261.384 16.73 261.23 16.87C261.084 17.0033 261.01 17.2167 261.01 17.51C261.01 17.7433 261.087 17.9333 261.24 18.08C261.394 18.2267 261.627 18.3 261.94 18.3ZM266.588 16.87C266.201 16.7633 265.918 16.58 265.738 16.32C265.558 16.06 265.468 15.73 265.468 15.33C265.468 14.81 265.625 14.41 265.938 14.13C266.251 13.8433 266.758 13.7 267.458 13.7H269.468V19H268.578V16.98H267.468L266.248 19H265.268L266.588 16.87ZM268.578 16.22V14.47H267.458C267.038 14.47 266.748 14.54 266.588 14.68C266.428 14.82 266.348 15.04 266.348 15.34C266.348 15.6467 266.428 15.87 266.588 16.01C266.748 16.15 267.038 16.22 267.458 16.22H268.578ZM212.837 33.07C212.197 33.07 211.694 32.8767 211.327 32.49C210.967 32.0967 210.781 31.4933 210.767 30.68H209.827V33H208.937V27.7H209.827V29.92H210.767C210.781 29.1533 210.967 28.58 211.327 28.2C211.694 27.82 212.197 27.63 212.837 27.63C213.484 27.63 213.991 27.8267 214.357 28.22C214.731 28.6067 214.917 29.1733 214.917 29.92V30.68C214.917 31.48 214.731 32.08 214.357 32.48C213.991 32.8733 213.484 33.07 212.837 33.07ZM212.837 32.29C213.211 32.29 213.504 32.1667 213.717 31.92C213.931 31.6733 214.037 31.26 214.037 30.68V29.92C214.037 29.3867 213.931 29.0033 213.717 28.77C213.511 28.53 213.217 28.41 212.837 28.41C212.457 28.41 212.161 28.53 211.947 28.77C211.741 29.0033 211.637 29.3867 211.637 29.92V30.68C211.637 31.26 211.744 31.6733 211.957 31.92C212.171 32.1667 212.464 32.29 212.837 32.29ZM216.183 27.7H216.973V28.58C217.127 28.2867 217.33 28.0567 217.583 27.89C217.843 27.7233 218.163 27.64 218.543 27.64C218.823 27.64 219.08 27.69 219.313 27.79C219.547 27.89 219.747 28.0367 219.913 28.23C220.087 28.4167 220.22 28.6533 220.313 28.94C220.413 29.2267 220.463 29.5533 220.463 29.92V30.68C220.463 31.0733 220.413 31.42 220.313 31.72C220.22 32.02 220.087 32.27 219.913 32.47C219.747 32.67 219.547 32.82 219.313 32.92C219.08 33.02 218.823 33.07 218.543 33.07C218.183 33.07 217.88 32.9867 217.633 32.82C217.387 32.6533 217.2 32.44 217.073 32.18V35H216.183V27.7ZM218.363 32.29C218.723 32.29 219.017 32.1633 219.243 31.91C219.47 31.65 219.583 31.24 219.583 30.68V29.92C219.583 29.42 219.47 29.0467 219.243 28.8C219.017 28.5467 218.723 28.42 218.363 28.42C217.963 28.42 217.647 28.5467 217.413 28.8C217.187 29.0467 217.073 29.42 217.073 29.92V30.68C217.073 31.24 217.187 31.65 217.413 31.91C217.647 32.1633 217.963 32.29 218.363 32.29ZM221.73 27.7H222.58V31.75L225.05 27.7H225.93V33H225.08V28.95L222.61 33H221.73V27.7ZM226.853 32.22H227.323C227.477 32.08 227.6 31.9067 227.693 31.7C227.787 31.4867 227.86 31.2467 227.913 30.98C227.967 30.7133 228.003 30.4267 228.023 30.12C228.043 29.8067 228.053 29.4833 228.053 29.15V27.7H231.493V32.22H232.143V34.25H231.293V33H227.713V34.25H226.853V32.22ZM230.603 32.22V28.47H228.883V29.18C228.883 29.8267 228.847 30.4 228.773 30.9C228.7 31.3933 228.547 31.8333 228.313 32.22H230.603ZM233.332 27.7H234.182V31.75L236.652 27.7H237.532V33H236.682V28.95L234.212 33H233.332V27.7ZM241.695 30.59C241.582 30.7233 241.422 30.8367 241.215 30.93C241.015 31.0167 240.778 31.06 240.505 31.06C239.918 31.06 239.482 30.91 239.195 30.61C238.908 30.3033 238.765 29.8 238.765 29.1V27.7H239.655V29.05C239.655 29.5033 239.738 29.8233 239.905 30.01C240.078 30.19 240.345 30.28 240.705 30.28C240.992 30.28 241.212 30.2233 241.365 30.11C241.525 29.9967 241.635 29.8833 241.695 29.77V27.7H242.585V33H241.695V30.59ZM245.984 33.07C245.664 33.07 245.37 33.02 245.104 32.92C244.844 32.8133 244.62 32.66 244.434 32.46C244.254 32.2533 244.11 32.0033 244.004 31.71C243.904 31.41 243.854 31.0667 243.854 30.68V29.92C243.854 29.1733 244.037 28.6067 244.404 28.22C244.777 27.8267 245.287 27.63 245.934 27.63C246.58 27.63 247.087 27.8267 247.454 28.22C247.827 28.6067 248.014 29.18 248.014 29.94V30.61H244.734C244.74 31.2167 244.854 31.6533 245.074 31.92C245.3 32.18 245.604 32.31 245.984 32.31C246.15 32.31 246.294 32.29 246.414 32.25C246.54 32.2033 246.644 32.1433 246.724 32.07C246.81 31.9967 246.877 31.9133 246.924 31.82C246.97 31.7267 247.004 31.63 247.024 31.53H247.914C247.807 32.05 247.59 32.4367 247.264 32.69C246.937 32.9433 246.51 33.07 245.984 33.07ZM245.944 28.39C245.564 28.39 245.267 28.5067 245.054 28.74C244.847 28.9667 244.74 29.35 244.734 29.89H247.184C247.17 29.35 247.057 28.9667 246.844 28.74C246.637 28.5067 246.337 28.39 245.944 28.39ZM251.179 33.07C250.859 33.07 250.566 33.02 250.299 32.92C250.039 32.8133 249.816 32.66 249.629 32.46C249.449 32.2533 249.306 32.0033 249.199 31.71C249.099 31.41 249.049 31.0667 249.049 30.68V29.92C249.049 29.56 249.099 29.24 249.199 28.96C249.306 28.6733 249.449 28.4333 249.629 28.24C249.816 28.04 250.039 27.89 250.299 27.79C250.566 27.6833 250.859 27.63 251.179 27.63C251.446 27.63 251.696 27.6667 251.929 27.74C252.169 27.8133 252.379 27.92 252.559 28.06C252.739 28.2 252.886 28.37 252.999 28.57C253.112 28.7633 253.182 28.98 253.209 29.22H252.319C252.266 29 252.149 28.81 251.969 28.65C251.789 28.49 251.526 28.41 251.179 28.41C250.799 28.41 250.496 28.5367 250.269 28.79C250.042 29.0367 249.929 29.4133 249.929 29.92V30.68C249.929 31.2467 250.042 31.6567 250.269 31.91C250.496 32.1633 250.799 32.29 251.179 32.29C251.526 32.29 251.789 32.2067 251.969 32.04C252.149 31.8733 252.262 31.6867 252.309 31.48H253.209C253.089 32.0067 252.856 32.4033 252.509 32.67C252.169 32.9367 251.726 33.07 251.179 33.07ZM254.377 27.7H255.267V29.92H255.957L257.657 27.7H258.647L256.687 30.27L258.807 33H257.767L255.967 30.68H255.267V33H254.377V27.7ZM260.939 33.06C260.452 33.06 260.072 32.9267 259.799 32.66C259.525 32.3867 259.389 32.0067 259.389 31.52C259.389 31.0067 259.535 30.6167 259.829 30.35C260.122 30.0767 260.592 29.94 261.239 29.94H262.499V29.43C262.499 29.07 262.415 28.81 262.249 28.65C262.089 28.4833 261.839 28.4 261.499 28.4C261.325 28.4 261.179 28.42 261.059 28.46C260.939 28.4933 260.842 28.5433 260.769 28.61C260.695 28.67 260.639 28.74 260.599 28.82C260.559 28.9 260.535 28.98 260.529 29.06H259.669C259.689 28.8533 259.735 28.6633 259.809 28.49C259.882 28.3167 259.992 28.1667 260.139 28.04C260.285 27.9133 260.469 27.8133 260.689 27.74C260.915 27.6667 261.189 27.63 261.509 27.63C262.149 27.63 262.619 27.78 262.919 28.08C263.219 28.3733 263.369 28.8233 263.369 29.43V33H262.599V32.12C262.532 32.2333 262.455 32.3467 262.369 32.46C262.282 32.5733 262.172 32.6767 262.039 32.77C261.912 32.8567 261.759 32.9267 261.579 32.98C261.399 33.0333 261.185 33.06 260.939 33.06ZM261.189 32.3C261.589 32.3 261.905 32.1833 262.139 31.95C262.379 31.71 262.499 31.3867 262.499 30.98V30.66H261.279C260.899 30.66 260.632 30.73 260.479 30.87C260.332 31.0033 260.259 31.2167 260.259 31.51C260.259 31.7433 260.335 31.9333 260.489 32.08C260.642 32.2267 260.875 32.3 261.189 32.3ZM265.836 30.87C265.449 30.7633 265.166 30.58 264.986 30.32C264.806 30.06 264.716 29.73 264.716 29.33C264.716 28.81 264.873 28.41 265.186 28.13C265.499 27.8433 266.006 27.7 266.706 27.7H268.716V33H267.826V30.98H266.716L265.496 33H264.516L265.836 30.87ZM267.826 30.22V28.47H266.706C266.286 28.47 265.996 28.54 265.836 28.68C265.676 28.82 265.596 29.04 265.596 29.34C265.596 29.6467 265.676 29.87 265.836 30.01C265.996 30.15 266.286 30.22 266.706 30.22H267.826ZM272.717 27.7H275.897V28.47H273.607V33H272.717V27.7ZM276.818 27.7H277.608V28.58C277.761 28.2867 277.965 28.0567 278.218 27.89C278.478 27.7233 278.798 27.64 279.178 27.64C279.458 27.64 279.715 27.69 279.948 27.79C280.181 27.89 280.381 28.0367 280.548 28.23C280.721 28.4167 280.855 28.6533 280.948 28.94C281.048 29.2267 281.098 29.5533 281.098 29.92V30.68C281.098 31.0733 281.048 31.42 280.948 31.72C280.855 32.02 280.721 32.27 280.548 32.47C280.381 32.67 280.181 32.82 279.948 32.92C279.715 33.02 279.458 33.07 279.178 33.07C278.818 33.07 278.515 32.9867 278.268 32.82C278.021 32.6533 277.835 32.44 277.708 32.18V35H276.818V27.7ZM278.998 32.29C279.358 32.29 279.651 32.1633 279.878 31.91C280.105 31.65 280.218 31.24 280.218 30.68V29.92C280.218 29.42 280.105 29.0467 279.878 28.8C279.651 28.5467 279.358 28.42 278.998 28.42C278.598 28.42 278.281 28.5467 278.048 28.8C277.821 29.0467 277.708 29.42 277.708 29.92V30.68C277.708 31.24 277.821 31.65 278.048 31.91C278.281 32.1633 278.598 32.29 278.998 32.29ZM282.33 34.23C282.517 34.23 282.677 34.2133 282.81 34.18C282.95 34.1467 283.07 34.0867 283.17 34C283.277 33.92 283.373 33.8067 283.46 33.66C283.547 33.52 283.63 33.34 283.71 33.12L281.57 27.7H282.56L284.15 32L285.58 27.7H286.53L284.56 33.12C284.42 33.5 284.283 33.81 284.15 34.05C284.017 34.2967 283.867 34.49 283.7 34.63C283.533 34.77 283.34 34.8667 283.12 34.92C282.9 34.9733 282.637 35 282.33 35V34.23ZM287.453 27.7H291.553V33H290.663V28.47H288.343V33H287.453V27.7ZM293.049 27.7H297.149V33H296.259V28.47H293.939V33H293.049V27.7ZM299.864 33.06C299.378 33.06 298.998 32.9267 298.724 32.66C298.451 32.3867 298.314 32.0067 298.314 31.52C298.314 31.0067 298.461 30.6167 298.754 30.35C299.048 30.0767 299.518 29.94 300.164 29.94H301.424V29.43C301.424 29.07 301.341 28.81 301.174 28.65C301.014 28.4833 300.764 28.4 300.424 28.4C300.251 28.4 300.104 28.42 299.984 28.46C299.864 28.4933 299.768 28.5433 299.694 28.61C299.621 28.67 299.564 28.74 299.524 28.82C299.484 28.9 299.461 28.98 299.454 29.06H298.594C298.614 28.8533 298.661 28.6633 298.734 28.49C298.808 28.3167 298.918 28.1667 299.064 28.04C299.211 27.9133 299.394 27.8133 299.614 27.74C299.841 27.6667 300.114 27.63 300.434 27.63C301.074 27.63 301.544 27.78 301.844 28.08C302.144 28.3733 302.294 28.8233 302.294 29.43V33H301.524V32.12C301.458 32.2333 301.381 32.3467 301.294 32.46C301.208 32.5733 301.098 32.6767 300.964 32.77C300.838 32.8567 300.684 32.9267 300.504 32.98C300.324 33.0333 300.111 33.06 299.864 33.06ZM300.114 32.3C300.514 32.3 300.831 32.1833 301.064 31.95C301.304 31.71 301.424 31.3867 301.424 30.98V30.66H300.204C299.824 30.66 299.558 30.73 299.404 30.87C299.258 31.0033 299.184 31.2167 299.184 31.51C299.184 31.7433 299.261 31.9333 299.414 32.08C299.568 32.2267 299.801 32.3 300.114 32.3Z" fill="#6B7280"/>
<defs>
<linearGradient id="paint0_linear_2142_2241" x1="19.9998" y1="36" x2="19.9995" y2="21" gradientUnits="userSpaceOnUse">
<stop stop-color="#4480F3"/>
<stop offset="1" stop-color="#4BC2FD"/>
</linearGradient>
<linearGradient id="paint1_linear_2142_2241" x1="22.1051" y1="20.5825" x2="16.8225" y2="21.1989" gradientUnits="userSpaceOnUse">
<stop stop-color="#4480F3"/>
<stop offset="0.501961" stop-color="#2EB2F3"/>
<stop offset="1" stop-color="#4480F3"/>
</linearGradient>
</defs>
</svg>
