<svg width="40" height="40" viewBox="0 0 40 40" fill="none" xmlns="http://www.w3.org/2000/svg">
<rect width="40" height="40" rx="4" fill="#F4F6FB"/>
<path d="M15.882 25.362L20.148 20.448C20.616 19.908 20.97 19.452 21.21 19.08C21.45 18.696 21.57 18.33 21.57 17.982C21.57 17.478 21.432 17.088 21.156 16.812C20.88 16.536 20.508 16.398 20.04 16.398C19.572 16.398 19.2 16.536 18.924 16.812C18.648 17.088 18.51 17.478 18.51 17.982H16.062C16.062 17.466 16.158 16.986 16.35 16.542C16.554 16.086 16.83 15.69 17.178 15.354C17.538 15.006 17.958 14.736 18.438 14.544C18.93 14.34 19.464 14.238 20.04 14.238C20.616 14.238 21.144 14.34 21.624 14.544C22.116 14.736 22.536 15.006 22.884 15.354C23.244 15.69 23.52 16.086 23.712 16.542C23.916 16.986 24.018 17.466 24.018 17.982C24.018 18.654 23.814 19.308 23.406 19.944C23.01 20.568 22.518 21.21 21.93 21.87L19.248 24.858H24.018V27H15.882V25.362Z" fill="#3173F2"/>
</svg>
