<svg width="40" height="40" viewBox="0 0 40 40" fill="none" xmlns="http://www.w3.org/2000/svg">
<rect width="40" height="40" rx="4" fill="#F4F6FB"/>
<path d="M19.968 27.162C19.332 27.162 18.768 27.078 18.276 26.91C17.796 26.73 17.388 26.49 17.052 26.19C16.716 25.878 16.452 25.524 16.26 25.128C16.068 24.732 15.948 24.306 15.9 23.85H18.474C18.558 24.198 18.714 24.48 18.942 24.696C19.182 24.9 19.524 25.002 19.968 25.002C20.412 25.002 20.772 24.828 21.048 24.48C21.336 24.132 21.48 23.52 21.48 22.644C21.48 21.768 21.336 21.156 21.048 20.808C20.772 20.448 20.412 20.268 19.968 20.268C19.608 20.268 19.308 20.388 19.068 20.628C18.828 20.856 18.642 21.126 18.51 21.438H16.242V14.4H23.514V16.542H18.69V18.936C18.882 18.744 19.146 18.564 19.482 18.396C19.818 18.216 20.214 18.126 20.67 18.126C21.162 18.126 21.612 18.216 22.02 18.396C22.44 18.576 22.8 18.852 23.1 19.224C23.4 19.584 23.634 20.052 23.802 20.628C23.97 21.192 24.054 21.864 24.054 22.644C24.054 24.204 23.706 25.35 23.01 26.082C22.326 26.802 21.312 27.162 19.968 27.162Z" fill="#3173F2"/>
</svg>
