<svg width="40" height="40" viewBox="0 0 40 40" fill="none" xmlns="http://www.w3.org/2000/svg">
<rect width="40" height="40" rx="4" fill="#F4F6FB"/>
<path d="M19.77 27.162C19.122 27.162 18.54 27.072 18.024 26.892C17.508 26.7 17.064 26.442 16.692 26.118C16.332 25.782 16.056 25.398 15.864 24.966C15.672 24.522 15.576 24.048 15.576 23.544H18.096C18.096 23.952 18.246 24.3 18.546 24.588C18.846 24.864 19.254 25.002 19.77 25.002C20.286 25.002 20.694 24.852 20.994 24.552C21.294 24.252 21.444 23.85 21.444 23.346C21.444 22.794 21.276 22.368 20.94 22.068C20.616 21.756 20.106 21.6 19.41 21.6H18.312V19.44H19.41C20.058 19.44 20.526 19.308 20.814 19.044C21.114 18.78 21.264 18.384 21.264 17.856C21.264 17.4 21.132 17.046 20.868 16.794C20.604 16.53 20.238 16.398 19.77 16.398C19.302 16.398 18.936 16.518 18.672 16.758C18.408 16.998 18.276 17.31 18.276 17.694H15.756C15.756 17.226 15.84 16.782 16.008 16.362C16.188 15.942 16.446 15.576 16.782 15.264C17.13 14.94 17.55 14.688 18.042 14.508C18.546 14.328 19.122 14.238 19.77 14.238C20.382 14.238 20.934 14.334 21.426 14.526C21.918 14.706 22.338 14.952 22.686 15.264C23.046 15.576 23.316 15.948 23.496 16.38C23.688 16.812 23.784 17.268 23.784 17.748C23.784 18.108 23.736 18.432 23.64 18.72C23.544 19.008 23.418 19.266 23.262 19.494C23.118 19.71 22.944 19.896 22.74 20.052C22.548 20.208 22.344 20.34 22.128 20.448C22.704 20.688 23.154 21.066 23.478 21.582C23.802 22.086 23.964 22.716 23.964 23.472C23.964 24 23.868 24.486 23.676 24.93C23.484 25.374 23.202 25.764 22.83 26.1C22.47 26.436 22.032 26.7 21.516 26.892C21 27.072 20.418 27.162 19.77 27.162Z" fill="#3173F2"/>
</svg>
